<svg width="400" height="236" viewBox="0 0 400 236" fill="none" xmlns="http://www.w3.org/2000/svg">
<path d="M38.359 12.1865C38.359 12.1865 38.134 9.48652 38.134 4.08652V2.43652H0.633984V4.08652C0.633984 9.48652 0.408984 12.1865 0.408984 12.1865H2.28398C2.28398 12.0365 2.05898 9.11152 4.15898 7.23652C5.65898 5.88652 8.05898 5.81152 10.684 5.81152H15.634V38.7365C15.634 45.7115 15.559 48.0365 14.209 49.6115C13.009 51.0365 10.684 51.4865 9.33398 51.5615V53.2115C9.33398 53.2115 14.134 52.9115 19.384 52.9115C23.659 52.9115 29.284 53.2115 29.284 53.2115V51.5615C27.859 51.4865 25.834 51.1115 24.784 50.1365C23.359 48.7865 23.134 47.3615 23.134 41.1365V5.81152H28.084C30.709 5.81152 33.109 5.88652 34.609 7.23652C36.709 9.11152 36.484 12.0365 36.484 12.1865H38.359ZM90.7699 3.86152V2.21152C90.7699 2.21152 87.0949 2.51152 81.8449 2.51152C77.4199 2.51152 72.9949 2.21152 72.9949 2.21152V3.86152C74.0449 3.93652 75.5449 4.38652 76.4449 5.28652C77.7949 6.63652 78.0199 8.06152 78.0199 14.2865V24.9365H54.0949V16.6865C54.0949 9.63652 54.1699 7.38652 55.5199 5.81152C56.7199 4.38652 58.2949 3.93652 59.3449 3.86152V2.21152C59.3449 2.21152 55.6699 2.51152 50.4199 2.51152C45.9949 2.51152 41.4949 2.21152 41.4949 2.21152V3.86152C42.5449 3.93652 44.1199 4.38652 45.0199 5.28652C46.3699 6.63652 46.5949 8.06152 46.5949 14.2865V38.7365C46.5949 45.7865 46.5199 48.0365 45.1699 49.6115C43.9699 51.0365 42.3949 51.4865 41.3449 51.5615V53.2115C41.3449 53.2115 45.0949 52.9115 50.3449 52.9115C54.7699 52.9115 59.1949 53.2115 59.1949 53.2115V51.5615C58.1449 51.4865 56.6449 51.0365 55.7449 50.1365C54.3949 48.7865 54.0949 47.3615 54.0949 41.1365V28.8365H78.0199V38.7365C78.0199 45.7865 77.9449 48.0365 76.5949 49.6115C75.3949 51.0365 73.8949 51.4865 72.8449 51.5615V53.2115C72.8449 53.2115 76.5199 52.9115 81.7699 52.9115C86.1949 52.9115 90.6199 53.2115 90.6199 53.2115V51.5615C89.5699 51.4865 88.0699 51.0365 87.1699 50.1365C85.8199 48.7865 85.5199 47.3615 85.5199 41.1365V16.6865C85.5199 9.63652 85.5949 7.38652 86.9449 5.81152C88.1449 4.38652 89.7199 3.93652 90.7699 3.86152ZM128.816 42.7115H126.791C126.791 42.8615 126.566 46.2365 124.841 48.0365C123.416 49.5365 121.541 49.6115 118.391 49.6115H114.191C110.216 49.6115 109.466 49.0865 109.466 45.6365V28.4615H117.041C120.116 28.4615 121.691 28.6115 122.816 29.8865C124.166 31.3865 124.166 33.7115 124.166 33.7865H126.116C126.116 33.7865 125.891 31.6115 125.891 26.8115C125.891 22.0115 126.041 19.6865 126.041 19.6865H124.166C124.166 19.7615 124.241 22.0865 122.891 23.5865C121.766 24.8615 120.116 25.0865 117.116 25.0865H109.466V5.96152H118.016C120.641 5.96152 123.041 5.96152 124.541 7.31152C126.641 9.18652 126.491 11.8865 126.491 12.0365H128.366C128.366 12.0365 128.141 9.56152 128.141 4.16152V2.51152H108.641C102.866 2.51152 96.866 2.21152 96.866 2.21152V3.86152C97.916 3.93652 99.491 4.38652 100.391 5.28652C101.741 6.63652 101.966 8.06152 101.966 14.2865V38.7365C101.966 45.7865 101.891 48.0365 100.541 49.6115C99.341 51.0365 97.766 51.4865 96.716 51.5615V53.2115C96.716 53.2115 102.116 53.0615 109.091 53.0615H128.516V51.4865C128.516 45.8615 128.816 42.7115 128.816 42.7115ZM197.271 27.1115C197.271 12.2615 188.946 1.83652 174.321 1.83652C159.396 1.83652 150.696 13.3865 150.696 28.3865C150.696 43.2365 159.021 53.6615 173.646 53.6615C188.571 53.6615 197.271 42.1115 197.271 27.1115ZM189.096 27.7115C189.096 35.8865 186.546 50.0615 173.871 50.0615C162.471 50.0615 158.796 38.2865 158.796 27.7865C158.796 19.6115 161.421 5.43652 174.096 5.43652C185.496 5.43652 189.096 17.2115 189.096 27.7115ZM251.962 3.86152V2.21152C251.962 2.21152 249.712 2.51152 244.762 2.51152C240.712 2.51152 237.037 2.21152 237.037 2.21152V3.86152C238.087 3.93652 239.587 4.38652 240.487 5.28652C241.837 6.63652 242.062 8.06152 242.062 14.2865V41.6615C242.062 41.6615 241.312 40.1615 239.662 37.6865L215.887 2.28652C215.887 2.28652 213.862 2.43652 210.637 2.43652C206.737 2.43652 203.287 2.21152 203.287 2.21152V3.86152C204.337 3.93652 205.912 4.38652 206.812 5.28652C208.162 6.63652 208.387 8.06152 208.387 14.2865V38.7365C208.387 45.7865 208.312 48.0365 206.962 49.6115C205.762 51.0365 204.187 51.4865 203.137 51.5615V53.2115C203.137 53.2115 206.362 52.9115 210.562 52.9115C214.387 52.9115 218.062 53.2115 218.062 53.2115V51.5615C217.012 51.4865 215.512 51.0365 214.612 50.1365C213.262 48.7865 212.962 47.3615 212.962 41.1365V10.9115C213.037 11.0615 213.637 12.3365 214.762 13.9865L241.237 53.3615H246.712V16.6865C246.712 9.63652 246.787 7.38652 248.137 5.81152C249.337 4.38652 250.912 3.93652 251.962 3.86152ZM288.616 42.7115H286.666C286.666 42.8615 286.441 46.2365 284.716 48.0365C283.291 49.5365 281.341 49.6115 278.191 49.6115H274.591C270.616 49.6115 269.866 49.0865 269.866 45.6365V15.7115C269.866 8.88652 270.016 7.16152 271.216 5.66152C272.416 4.23652 274.966 4.01152 276.316 3.93652V2.21152C276.316 2.21152 272.791 2.51152 266.866 2.51152C262.141 2.51152 257.266 2.21152 257.266 2.21152V3.86152C258.316 3.93652 259.891 4.38652 260.791 5.28652C262.141 6.63652 262.366 8.06152 262.366 14.2865V38.7365C262.366 45.7865 262.291 48.0365 260.941 49.6115C259.741 51.0365 258.166 51.4865 257.116 51.5615V53.2115C257.116 53.2115 259.666 53.0615 269.641 53.0615H288.316V51.6365C288.316 46.0115 288.616 42.7115 288.616 42.7115ZM331.789 3.86152V2.21152C331.789 2.21152 328.564 2.51152 325.564 2.51152C321.889 2.51152 318.439 2.21152 318.439 2.21152V3.86152C319.114 3.86152 320.464 4.01152 321.289 4.76152C321.739 5.13652 321.964 5.81152 321.964 6.48652C321.964 7.68652 321.214 9.26152 320.689 10.3865L312.139 27.4865C312.139 27.4865 309.964 23.4365 309.889 23.2865L303.064 10.2365C302.464 9.03652 301.789 7.61152 301.789 6.56152C301.789 5.88652 302.014 5.13652 302.464 4.76152C303.289 4.01152 304.714 3.86152 305.389 3.86152V2.21152C305.389 2.21152 302.164 2.51152 296.614 2.51152C292.489 2.51152 288.814 2.21152 288.814 2.21152V3.86152C289.789 3.93652 290.764 4.23652 291.589 5.06152C292.339 5.81152 293.764 8.21152 295.564 11.5865L306.589 31.9865V38.7365C306.589 45.7115 306.439 48.0365 305.089 49.6115C303.889 51.0365 301.564 51.4865 300.214 51.5615V53.2115C300.214 53.2115 305.314 52.9115 310.264 52.9115C315.589 52.9115 320.239 53.2115 320.239 53.2115V51.5615C318.814 51.4865 316.714 51.1115 315.664 50.1365C314.239 48.7865 314.014 47.3615 314.014 41.1365V31.3865L325.039 11.6615C326.914 8.28652 328.264 5.81152 329.014 5.06152C329.914 4.16152 330.814 3.93652 331.789 3.86152Z" fill="#2E2E2B"/>
<path d="M124.416 80.6468C124.416 78.1718 124.491 71.2718 120.516 66.0218C116.166 60.3218 109.416 60.0968 106.716 60.0968C86.6906 60.0968 82.6406 82.7468 82.6406 91.4468C82.6406 93.8468 82.5656 100.822 86.5406 106.072C90.8906 111.772 97.6406 111.997 100.266 111.997C120.366 111.997 124.416 89.3468 124.416 80.6468ZM117.216 80.1968C117.216 83.7968 115.566 108.922 100.491 108.922C91.2656 108.922 89.8406 99.6218 89.8406 91.8968C89.8406 88.2968 91.4156 63.1718 106.491 63.1718C115.716 63.1718 117.216 72.4718 117.216 80.1968ZM169.53 109.597C165.78 109.522 163.53 106.597 160.755 102.172C157.155 96.5468 151.38 86.9468 151.38 86.9468C153.78 86.7218 164.355 84.1718 164.355 72.0218C164.355 67.2968 161.655 60.6218 149.655 60.6218C145.005 60.6218 143.73 60.7718 140.43 60.7718C136.605 60.7718 134.13 60.5468 134.13 60.5468L133.905 62.2718C136.455 62.6468 137.88 63.2468 137.88 66.0968C137.88 67.3718 137.58 69.5468 137.28 71.5718L133.23 98.0468C132.18 105.097 131.805 106.897 130.38 108.247C129.255 109.297 127.53 109.672 126.48 109.822L126.255 111.472C126.255 111.472 129.93 111.172 134.58 111.172C138.705 111.172 142.68 111.472 142.68 111.472L142.905 109.822C140.355 109.447 138.93 108.772 138.93 105.922C138.93 104.572 139.23 102.472 139.53 100.447L141.405 87.9218H144.855C146.13 90.6218 152.73 102.547 154.455 105.247C157.08 109.372 158.58 111.697 163.455 111.697C166.83 111.697 169.305 111.322 169.305 111.322L169.53 109.597ZM157.305 72.4718C157.305 77.9468 154.83 82.5968 151.23 84.2468C149.355 85.0718 147.555 84.9968 145.53 84.9968C143.13 84.9968 141.93 84.8468 141.93 84.8468L145.005 63.7718C145.005 63.7718 146.505 63.6218 148.605 63.6218C153.63 63.6218 157.305 65.4968 157.305 72.4718ZM191.791 60.5468C188.716 60.7718 186.391 60.8468 183.466 60.8468C180.616 60.8468 178.141 60.6968 175.366 60.5468L175.141 62.2718C177.691 62.6468 179.116 63.2468 179.116 66.0968C179.116 67.3718 178.816 69.5468 178.516 71.5718L174.466 98.0468C173.416 105.097 173.041 106.897 171.616 108.247C170.491 109.297 168.766 109.672 167.716 109.822L167.491 111.472C170.641 111.247 172.891 111.172 175.816 111.172C178.666 111.172 181.216 111.322 183.916 111.472L184.141 109.822C181.591 109.447 180.166 108.772 180.166 105.922C180.166 104.572 180.466 102.472 180.841 100.447L184.816 73.9718C185.941 66.9218 186.241 65.1218 187.666 63.7718C188.791 62.7218 190.516 62.4218 191.566 62.2718L191.791 60.5468ZM236.21 89.4968C235.46 89.5718 231.86 89.7968 227.885 89.7968C224.585 89.7968 220.835 89.5718 219.785 89.4968L219.56 91.2218C222.11 91.5968 223.535 92.1968 223.535 95.0468C223.535 96.3218 223.31 98.1218 223.01 100.147L221.735 108.322C220.535 108.547 218.81 108.622 216.71 108.622C211.385 108.622 200.51 107.422 200.51 92.1218C200.51 68.0468 213.41 64.7468 216.035 63.9218C218.285 63.3218 220.16 63.1718 223.085 63.1718C224.96 63.1718 229.31 63.4718 231.335 66.2468C231.71 66.8468 232.535 68.3468 232.535 71.3468H234.26C234.26 70.4468 234.41 68.1218 234.71 65.9468C234.935 64.2968 235.16 62.4968 235.535 61.0718C235.235 61.0718 230.21 60.0968 222.935 60.0968C217.835 60.0968 213.185 60.6968 209.36 62.4218C199.835 66.7718 193.31 77.0468 193.31 91.0718C193.31 97.5968 196.01 111.772 215.06 111.772C222.335 111.772 226.085 110.572 228.11 109.972L229.235 102.772C230.285 95.6468 230.66 94.0718 232.085 92.7218C233.21 91.6718 234.935 91.3718 235.985 91.2218L236.21 89.4968ZM262.103 60.5468C259.028 60.7718 256.703 60.8468 253.778 60.8468C250.928 60.8468 248.453 60.6968 245.678 60.5468L245.453 62.2718C248.003 62.6468 249.428 63.2468 249.428 66.0968C249.428 67.3718 249.128 69.5468 248.828 71.5718L244.778 98.0468C243.728 105.097 243.353 106.897 241.928 108.247C240.803 109.297 239.078 109.672 238.028 109.822L237.803 111.472C240.953 111.247 243.203 111.172 246.128 111.172C248.978 111.172 251.528 111.322 254.228 111.472L254.453 109.822C251.903 109.447 250.478 108.772 250.478 105.922C250.478 104.572 250.778 102.472 251.153 100.447L255.128 73.9718C256.253 66.9218 256.553 65.1218 257.978 63.7718C259.103 62.7218 260.828 62.4218 261.878 62.2718L262.103 60.5468ZM311.547 60.4718C308.472 60.7718 307.197 60.7718 304.422 60.7718C301.722 60.7718 300.447 60.6968 297.672 60.4718L297.447 62.1968C299.997 62.5718 301.422 63.1718 301.422 66.0218C301.422 67.3718 301.122 69.4718 300.822 71.4968L296.397 100.522C296.397 100.522 296.172 98.9468 294.747 96.0968L277.647 60.5468C276.522 60.6968 274.047 60.7718 272.622 60.7718C270.597 60.8468 269.472 60.7718 266.772 60.5468L266.547 62.2718C269.097 62.6468 270.522 63.2468 270.522 66.0968C270.522 67.3718 270.222 69.5468 269.922 71.5718L265.872 98.0468C264.822 105.097 264.447 106.897 263.022 108.247C261.897 109.297 260.172 109.672 259.122 109.822L258.897 111.472C262.047 111.172 263.247 111.172 265.947 111.172C268.647 111.172 270.072 111.247 272.772 111.472L272.997 109.822C270.447 109.447 269.022 108.772 269.022 105.922C269.022 104.572 269.322 102.472 269.622 100.447L274.497 68.7218C274.497 68.7218 274.722 69.7718 275.772 72.0968L294.897 111.622H298.797L304.572 73.8968C305.622 66.8468 305.997 65.0468 307.422 63.6968C308.547 62.6468 310.272 62.3468 311.322 62.1968L311.547 60.4718ZM350.494 109.822C347.569 109.372 347.344 108.472 346.969 108.097C346.369 107.272 345.919 105.172 345.244 101.572L337.894 60.0218L332.869 61.4468L310.969 103.297C310.294 104.572 309.094 106.822 307.744 108.247C306.919 109.072 305.944 109.597 304.144 109.822L303.919 111.472C303.919 111.472 307.594 111.172 310.894 111.172C314.794 111.172 318.094 111.472 318.094 111.472L318.394 109.822C316.819 109.597 316.069 109.372 315.619 109.147C315.169 108.922 314.419 108.472 314.419 107.272C314.419 106.222 314.794 105.097 316.594 101.497L321.994 90.4718H336.619L338.344 100.522C338.644 102.097 339.169 104.347 339.169 105.997C339.169 107.872 338.194 108.547 337.594 108.922C337.069 109.222 336.619 109.522 334.294 109.822L333.994 111.472C333.994 111.472 338.344 111.172 342.619 111.172C346.744 111.172 350.194 111.472 350.194 111.472L350.494 109.822ZM336.094 87.2468H323.569L329.494 75.3218C329.569 75.0968 333.019 68.1218 333.019 68.1218C333.019 68.1218 332.944 69.3968 333.544 72.9218L336.094 87.2468ZM383.289 100.972H381.564C380.439 103.897 379.464 105.247 378.114 106.447C376.089 108.097 373.314 108.322 369.714 108.322H368.289C366.489 108.322 365.739 108.172 365.214 108.097C363.789 107.797 363.564 106.747 363.564 105.772C363.564 104.797 363.864 102.772 364.089 101.347L368.214 73.9718C369.264 66.8468 369.639 65.1218 371.064 63.7718C372.189 62.7218 374.739 62.2718 375.789 62.2718L376.014 60.5468C372.864 60.7718 369.789 60.7718 366.864 60.7718C364.014 60.7718 361.539 60.6968 358.764 60.5468L358.539 62.2718C361.089 62.6468 362.514 63.2468 362.514 66.0968C362.514 67.3718 362.214 69.5468 361.914 71.5718L357.864 98.0468C356.814 105.097 356.439 106.897 355.014 108.247C353.889 109.297 352.164 109.672 351.114 109.822L350.889 111.472C354.039 111.247 356.214 111.322 359.139 111.322H381.189C381.339 109.972 381.639 108.322 381.939 106.672C382.464 104.422 382.839 102.397 383.289 100.972Z" fill="#2E2E2B"/>
<path d="M42.484 128.13H40.534C40.534 126.53 39.909 125.105 38.659 123.855C37.059 122.255 34.059 121.455 29.659 121.455C28.559 121.455 27.534 121.505 26.584 121.605C25.634 121.655 24.509 121.855 23.209 122.205C21.909 122.555 20.734 123.03 19.684 123.63C18.684 124.23 17.634 125.105 16.534 126.255C15.434 127.405 14.534 128.755 13.834 130.305C13.134 131.805 12.534 133.73 12.034 136.08C11.584 138.38 11.359 140.98 11.359 143.88C11.359 150.73 12.859 156.13 15.859 160.08C18.909 163.98 23.684 165.93 30.184 165.93C34.334 165.93 37.159 164.98 38.659 163.08C39.709 161.83 40.234 160.305 40.234 158.505H42.259C42.059 161.155 41.959 163.93 41.959 166.83V167.805C38.859 168.905 34.484 169.455 28.834 169.455C19.184 169.455 12.159 166.505 7.75898 160.605C4.75898 156.555 3.25898 151.305 3.25898 144.855C3.25898 138.405 4.68398 133.03 7.53398 128.73C10.434 124.43 14.384 121.355 19.384 119.505C22.484 118.355 26.484 117.78 31.384 117.78C33.134 117.78 34.934 117.855 36.784 118.005C38.634 118.105 40.034 118.23 40.984 118.38L42.484 118.605C42.384 120.005 42.334 121.63 42.334 123.48L42.484 128.13ZM90.8977 169.155C88.2977 168.955 85.7977 168.855 83.3977 168.855L74.9977 169.155V167.505C76.3977 167.505 77.4727 167.155 78.2227 166.455C78.6727 166.005 78.8977 165.355 78.8977 164.505C78.8977 163.955 78.4977 162.43 77.6977 159.93L74.0977 149.13H58.9477L55.0477 159.855C54.1977 162.155 53.7727 163.68 53.7727 164.43C53.7727 165.18 54.0477 165.83 54.5977 166.38C55.3477 167.13 56.3977 167.505 57.7477 167.505V169.155C55.4477 168.955 53.0727 168.855 50.6227 168.855L44.0227 169.155V167.505C45.5227 167.505 46.7977 166.605 47.8477 164.805C48.2977 163.905 48.8227 162.705 49.4227 161.205L66.4477 118.08L70.7227 117.405L86.2477 161.43C86.7977 163.08 87.3227 164.38 87.8227 165.33C88.6227 166.73 89.6477 167.455 90.8977 167.505V169.155ZM72.8977 145.605L68.5477 132.93C67.4477 129.73 66.8977 127.555 66.8977 126.405C66.3977 128.405 65.7227 130.58 64.8727 132.93L60.2977 145.605H72.8977ZM138.584 169.005C137.034 169.255 134.859 169.38 132.059 169.38C129.659 169.38 127.809 169.005 126.509 168.255C125.209 167.455 123.559 165.83 121.559 163.38C120.509 162.13 118.484 159.48 115.484 155.43C112.484 151.33 110.559 148.655 109.709 147.405H105.434V157.08C105.434 160.18 105.534 162.28 105.734 163.38C105.934 164.48 106.384 165.38 107.084 166.08C107.934 166.93 109.084 167.405 110.534 167.505V169.155C107.534 168.955 104.634 168.855 101.834 168.855L92.8342 169.155V167.505C94.3842 167.405 95.6592 166.755 96.6592 165.555C97.3092 164.805 97.7092 163.755 97.8592 162.405C98.0092 161.055 98.0842 158.48 98.0842 154.68V130.23C98.0842 127.08 97.9842 124.955 97.7842 123.855C97.5842 122.755 97.1592 121.88 96.5092 121.23C95.6592 120.38 94.4842 119.905 92.9842 119.805V118.155C95.4842 118.355 97.6842 118.455 99.5842 118.455C101.284 118.455 103.184 118.43 105.284 118.38C107.384 118.28 108.759 118.23 109.409 118.23C113.559 118.23 116.659 118.53 118.709 119.13C124.959 120.88 128.084 125.03 128.084 131.58C128.084 133.73 127.709 135.68 126.959 137.43C126.209 139.18 125.384 140.53 124.484 141.48C123.584 142.38 122.509 143.205 121.259 143.955C120.009 144.655 119.109 145.105 118.559 145.305C118.059 145.455 117.609 145.58 117.209 145.68L129.284 160.605C131.184 162.955 132.834 164.68 134.234 165.78C135.684 166.88 137.134 167.455 138.584 167.505V169.005ZM119.909 132.255C119.909 124.905 116.284 121.23 109.034 121.23L105.434 121.53V143.955C106.534 144.205 108.184 144.33 110.384 144.33C110.884 144.33 111.659 144.255 112.709 144.105C114.809 143.705 116.534 142.555 117.884 140.655C119.234 138.755 119.909 135.955 119.909 132.255ZM183.773 142.455C183.773 149.105 182.348 154.605 179.498 158.955C176.648 163.255 172.648 166.23 167.498 167.88C164.898 168.73 160.798 169.155 155.198 169.155C153.848 169.155 152.098 169.105 149.948 169.005C147.798 168.955 146.173 168.93 145.073 168.93L138.098 169.155V167.505C139.648 167.405 140.923 166.755 141.923 165.555C142.573 164.805 142.973 163.755 143.123 162.405C143.273 161.055 143.348 158.48 143.348 154.68V130.23C143.348 127.08 143.248 124.955 143.048 123.855C142.848 122.755 142.423 121.88 141.773 121.23C140.923 120.38 139.748 119.905 138.248 119.805V118.155C140.198 118.355 142.598 118.455 145.448 118.455C146.598 118.455 148.398 118.43 150.848 118.38C153.298 118.28 155.148 118.23 156.398 118.23C157.948 118.23 159.298 118.255 160.448 118.305C161.648 118.355 163.248 118.555 165.248 118.905C167.298 119.205 169.073 119.655 170.573 120.255C172.073 120.855 173.698 121.755 175.448 122.955C177.248 124.155 178.698 125.58 179.798 127.23C180.898 128.88 181.823 131.03 182.573 133.68C183.373 136.28 183.773 139.205 183.773 142.455ZM175.598 143.355C175.598 139.255 175.073 135.73 174.023 132.78C172.973 129.83 171.523 127.58 169.673 126.03C167.873 124.48 165.948 123.38 163.898 122.73C161.848 122.03 159.598 121.68 157.148 121.68C154.348 121.68 152.248 121.855 150.848 122.205V161.58C150.848 162.83 150.973 163.73 151.223 164.28C151.473 164.78 151.973 165.13 152.723 165.33C153.573 165.53 155.223 165.63 157.673 165.63C169.623 165.63 175.598 158.205 175.598 143.355ZM39.334 188.88C39.334 191.58 38.859 193.93 37.909 195.93C37.009 197.93 35.934 199.455 34.684 200.505C33.434 201.505 31.959 202.305 30.259 202.905C28.609 203.505 27.259 203.88 26.209 204.03C25.159 204.13 24.134 204.18 23.134 204.18C22.234 204.18 21.384 204.13 20.584 204.03C19.834 203.93 19.284 203.83 18.934 203.73L18.409 203.58V201.705C18.959 201.755 19.509 201.78 20.059 201.78C23.459 201.78 26.184 200.805 28.234 198.855C30.234 196.855 31.234 193.855 31.234 189.855C31.234 186.405 30.384 183.63 28.684 181.53C27.034 179.38 23.909 178.305 19.309 178.305C18.309 178.305 17.209 178.355 16.009 178.455V214.755C16.009 218.905 16.309 221.43 16.909 222.33C17.809 223.73 19.559 224.43 22.159 224.43V226.155C17.559 225.955 14.334 225.855 12.484 225.855L3.25898 226.155V224.505C4.80898 224.405 6.08398 223.755 7.08398 222.555C7.73398 221.805 8.13398 220.755 8.28398 219.405C8.43398 218.055 8.50898 215.48 8.50898 211.68V187.23C8.50898 184.08 8.40898 181.955 8.20898 180.855C8.00898 179.755 7.58398 178.88 6.93398 178.23C6.08398 177.38 4.90898 176.905 3.40898 176.805V175.155C3.60898 175.205 3.90898 175.255 4.30898 175.305C4.70898 175.305 5.53398 175.33 6.78398 175.38C8.03398 175.43 9.33399 175.455 10.684 175.455C11.284 175.455 12.784 175.43 15.184 175.38C17.584 175.28 19.409 175.23 20.659 175.23C24.059 175.23 26.859 175.505 29.059 176.055C35.909 177.805 39.334 182.08 39.334 188.88ZM88.7063 226.005C87.1563 226.255 84.9813 226.38 82.1813 226.38C79.7813 226.38 77.9313 226.005 76.6313 225.255C75.3313 224.455 73.6813 222.83 71.6813 220.38C70.6313 219.13 68.6063 216.48 65.6063 212.43C62.6063 208.33 60.6813 205.655 59.8312 204.405H55.5563V214.08C55.5563 217.18 55.6563 219.28 55.8563 220.38C56.0563 221.48 56.5063 222.38 57.2063 223.08C58.0563 223.93 59.2063 224.405 60.6563 224.505V226.155C57.6563 225.955 54.7563 225.855 51.9563 225.855L42.9563 226.155V224.505C44.5063 224.405 45.7813 223.755 46.7813 222.555C47.4313 221.805 47.8313 220.755 47.9813 219.405C48.1313 218.055 48.2063 215.48 48.2063 211.68V187.23C48.2063 184.08 48.1063 181.955 47.9063 180.855C47.7063 179.755 47.2813 178.88 46.6313 178.23C45.7813 177.38 44.6063 176.905 43.1063 176.805V175.155C45.6063 175.355 47.8063 175.455 49.7063 175.455C51.4063 175.455 53.3063 175.43 55.4063 175.38C57.5063 175.28 58.8813 175.23 59.5313 175.23C63.6813 175.23 66.7813 175.53 68.8313 176.13C75.0813 177.88 78.2063 182.03 78.2063 188.58C78.2063 190.73 77.8313 192.68 77.0813 194.43C76.3313 196.18 75.5063 197.53 74.6063 198.48C73.7063 199.38 72.6313 200.205 71.3813 200.955C70.1313 201.655 69.2313 202.105 68.6813 202.305C68.1813 202.455 67.7313 202.58 67.3313 202.68L79.4063 217.605C81.3063 219.955 82.9563 221.68 84.3563 222.78C85.8063 223.88 87.2563 224.455 88.7063 224.505V226.005ZM70.0313 189.255C70.0313 181.905 66.4063 178.23 59.1563 178.23L55.5563 178.53V200.955C56.6563 201.205 58.3063 201.33 60.5063 201.33C61.0063 201.33 61.7813 201.255 62.8313 201.105C64.9313 200.705 66.6563 199.555 68.0063 197.655C69.3563 195.755 70.0313 192.955 70.0313 189.255ZM134.795 200.055C134.795 207.755 132.67 214.105 128.42 219.105C124.22 224.105 118.47 226.605 111.17 226.605C103.97 226.605 98.3449 224.305 94.2949 219.705C90.2449 215.055 88.2199 208.93 88.2199 201.33C88.2199 193.63 90.3199 187.28 94.5199 182.28C98.7699 177.28 104.545 174.78 111.845 174.78C119.045 174.78 124.67 177.105 128.72 181.755C132.77 186.355 134.795 192.455 134.795 200.055ZM126.62 200.655C126.62 197.855 126.345 195.205 125.795 192.705C125.295 190.205 124.495 187.855 123.395 185.655C122.295 183.405 120.72 181.63 118.67 180.33C116.67 179.03 114.32 178.38 111.62 178.38C108.62 178.38 106.045 179.13 103.895 180.63C101.795 182.13 100.22 184.105 99.1699 186.555C98.1199 189.005 97.3699 191.405 96.9199 193.755C96.5199 196.055 96.3199 198.38 96.3199 200.73C96.3199 204.58 96.7449 208.105 97.5949 211.305C98.4949 214.455 100.12 217.205 102.47 219.555C104.82 221.855 107.795 223.005 111.395 223.005C113.795 223.005 115.92 222.48 117.77 221.43C119.67 220.38 121.145 219.08 122.195 217.53C123.295 215.98 124.195 214.155 124.895 212.055C125.595 209.955 126.045 208.005 126.245 206.205C126.495 204.355 126.62 202.505 126.62 200.655ZM175.761 185.13H173.886C173.886 182.93 173.261 181.28 172.011 180.18C170.961 179.23 168.786 178.755 165.486 178.755H160.536V214.08C160.536 217.23 160.636 219.355 160.836 220.455C161.036 221.555 161.486 222.43 162.186 223.08C163.086 223.93 164.586 224.405 166.686 224.505V226.155C162.936 225.955 159.636 225.855 156.786 225.855L146.736 226.155V224.505C148.986 224.355 150.611 223.705 151.611 222.555C152.261 221.805 152.661 220.755 152.811 219.405C152.961 218.005 153.036 215.43 153.036 211.68V178.755H148.086C144.786 178.755 142.611 179.23 141.561 180.18C140.311 181.28 139.686 182.93 139.686 185.13H137.811C137.961 183.33 138.036 180.63 138.036 177.03V175.38H175.536V177.03L175.761 185.13ZM210.847 215.655C210.647 217.755 210.547 220.68 210.547 224.43V226.005H191.122L178.747 226.155V224.505C180.297 224.405 181.572 223.755 182.572 222.555C183.222 221.805 183.622 220.755 183.772 219.405C183.922 218.055 183.997 215.48 183.997 211.68V187.23C183.997 184.08 183.897 181.955 183.697 180.855C183.497 179.755 183.072 178.88 182.422 178.23C181.572 177.38 180.397 176.905 178.897 176.805V175.155C182.897 175.355 186.822 175.455 190.672 175.455H210.172V177.105L210.397 184.98H208.522C208.522 182.98 207.872 181.405 206.572 180.255C205.572 179.355 203.397 178.905 200.047 178.905H191.497V198.03H199.147C202.097 198.03 204.022 197.53 204.922 196.53C205.772 195.58 206.197 194.28 206.197 192.63H208.072C207.972 194.18 207.922 196.555 207.922 199.755L208.147 206.73H206.197C206.197 205.13 205.747 203.83 204.847 202.83C203.997 201.88 202.072 201.405 199.072 201.405H191.497V218.58C191.497 220.28 191.772 221.38 192.322 221.88C192.922 222.33 194.222 222.555 196.222 222.555H200.422C202.222 222.555 203.572 222.48 204.472 222.33C205.422 222.13 206.222 221.68 206.872 220.98C207.372 220.43 207.772 219.705 208.072 218.805C208.422 217.905 208.622 217.205 208.672 216.705C208.772 216.205 208.822 215.855 208.822 215.655H210.847ZM256.937 185.13H254.987C254.987 183.53 254.362 182.105 253.112 180.855C251.512 179.255 248.512 178.455 244.112 178.455C243.012 178.455 241.987 178.505 241.037 178.605C240.087 178.655 238.962 178.855 237.662 179.205C236.362 179.555 235.187 180.03 234.137 180.63C233.137 181.23 232.087 182.105 230.987 183.255C229.887 184.405 228.987 185.755 228.287 187.305C227.587 188.805 226.987 190.73 226.487 193.08C226.037 195.38 225.812 197.98 225.812 200.88C225.812 207.73 227.312 213.13 230.312 217.08C233.362 220.98 238.137 222.93 244.637 222.93C248.787 222.93 251.612 221.98 253.112 220.08C254.162 218.83 254.687 217.305 254.687 215.505H256.712C256.512 218.155 256.412 220.93 256.412 223.83V224.805C253.312 225.905 248.937 226.455 243.287 226.455C233.637 226.455 226.612 223.505 222.212 217.605C219.212 213.555 217.712 208.305 217.712 201.855C217.712 195.405 219.137 190.03 221.987 185.73C224.887 181.43 228.837 178.355 233.837 176.505C236.937 175.355 240.937 174.78 245.837 174.78C247.587 174.78 249.387 174.855 251.237 175.005C253.087 175.105 254.487 175.23 255.437 175.38L256.937 175.605C256.837 177.005 256.787 178.63 256.787 180.48L256.937 185.13ZM298.076 185.13H296.201C296.201 182.93 295.576 181.28 294.326 180.18C293.276 179.23 291.101 178.755 287.801 178.755H282.851V214.08C282.851 217.23 282.951 219.355 283.151 220.455C283.351 221.555 283.801 222.43 284.501 223.08C285.401 223.93 286.901 224.405 289.001 224.505V226.155C285.251 225.955 281.951 225.855 279.101 225.855L269.051 226.155V224.505C271.301 224.355 272.926 223.705 273.926 222.555C274.576 221.805 274.976 220.755 275.126 219.405C275.276 218.005 275.351 215.43 275.351 211.68V178.755H270.401C267.101 178.755 264.926 179.23 263.876 180.18C262.626 181.28 262.001 182.93 262.001 185.13H260.126C260.276 183.33 260.351 180.63 260.351 177.03V175.38H297.851V177.03L298.076 185.13ZM347.637 200.055C347.637 207.755 345.512 214.105 341.262 219.105C337.062 224.105 331.312 226.605 324.012 226.605C316.812 226.605 311.187 224.305 307.137 219.705C303.087 215.055 301.062 208.93 301.062 201.33C301.062 193.63 303.162 187.28 307.362 182.28C311.612 177.28 317.387 174.78 324.687 174.78C331.887 174.78 337.512 177.105 341.562 181.755C345.612 186.355 347.637 192.455 347.637 200.055ZM339.462 200.655C339.462 197.855 339.187 195.205 338.637 192.705C338.137 190.205 337.337 187.855 336.237 185.655C335.137 183.405 333.562 181.63 331.512 180.33C329.512 179.03 327.162 178.38 324.462 178.38C321.462 178.38 318.887 179.13 316.737 180.63C314.637 182.13 313.062 184.105 312.012 186.555C310.962 189.005 310.212 191.405 309.762 193.755C309.362 196.055 309.162 198.38 309.162 200.73C309.162 204.58 309.587 208.105 310.437 211.305C311.337 214.455 312.962 217.205 315.312 219.555C317.662 221.855 320.637 223.005 324.237 223.005C326.637 223.005 328.762 222.48 330.612 221.43C332.512 220.38 333.987 219.08 335.037 217.53C336.137 215.98 337.037 214.155 337.737 212.055C338.437 209.955 338.887 208.005 339.087 206.205C339.337 204.355 339.462 202.505 339.462 200.655ZM399.253 226.005C397.703 226.255 395.528 226.38 392.728 226.38C390.328 226.38 388.478 226.005 387.178 225.255C385.878 224.455 384.228 222.83 382.228 220.38C381.178 219.13 379.153 216.48 376.153 212.43C373.153 208.33 371.228 205.655 370.378 204.405H366.103V214.08C366.103 217.18 366.203 219.28 366.403 220.38C366.603 221.48 367.053 222.38 367.753 223.08C368.603 223.93 369.753 224.405 371.203 224.505V226.155C368.203 225.955 365.303 225.855 362.503 225.855L353.503 226.155V224.505C355.053 224.405 356.328 223.755 357.328 222.555C357.978 221.805 358.378 220.755 358.528 219.405C358.678 218.055 358.753 215.48 358.753 211.68V187.23C358.753 184.08 358.653 181.955 358.453 180.855C358.253 179.755 357.828 178.88 357.178 178.23C356.328 177.38 355.153 176.905 353.653 176.805V175.155C356.153 175.355 358.353 175.455 360.253 175.455C361.953 175.455 363.853 175.43 365.953 175.38C368.053 175.28 369.428 175.23 370.078 175.23C374.228 175.23 377.328 175.53 379.378 176.13C385.628 177.88 388.753 182.03 388.753 188.58C388.753 190.73 388.378 192.68 387.628 194.43C386.878 196.18 386.053 197.53 385.153 198.48C384.253 199.38 383.178 200.205 381.928 200.955C380.678 201.655 379.778 202.105 379.228 202.305C378.728 202.455 378.278 202.58 377.878 202.68L389.953 217.605C391.853 219.955 393.503 221.68 394.903 222.78C396.353 223.88 397.803 224.455 399.253 224.505V226.005ZM380.578 189.255C380.578 181.905 376.953 178.23 369.703 178.23L366.103 178.53V200.955C367.203 201.205 368.853 201.33 371.053 201.33C371.553 201.33 372.328 201.255 373.378 201.105C375.478 200.705 377.203 199.555 378.553 197.655C379.903 195.755 380.578 192.955 380.578 189.255Z" fill="#2E2E2B"/>
</svg>
