<svg width="118" height="118" viewBox="0 0 118 118" fill="none" xmlns="http://www.w3.org/2000/svg">
<path d="M13.8004 59.4H103.6C103.7 59.4 103.8 59.4 103.9 59.3C104 59.2 104 59.1 104 59C104 58.9 104 58.8 103.9 58.7C103.8 58.6 103.7 58.6 103.6 58.6H13.8004C13.7004 58.6 13.6004 58.6 13.5004 58.7C13.4004 58.8 13.4004 58.9 13.4004 59C13.4004 59.1 13.4004 59.2 13.5004 59.3C13.5004 59.3 13.6004 59.4 13.8004 59.4Z" fill="#F5F4F0"/>
<path d="M13.4004 58.8C13.4004 58.9 13.4004 58.9 13.4004 59C13.4004 59.1 13.4004 59.1 13.4004 59.2C13.4004 59.3 13.5004 59.3 13.5004 59.3L30.2004 76L30.3004 76.1L30.7004 75.2L14.4004 59L14.8004 58.6L30.7004 42.7C30.8004 42.6 30.8004 42.5 30.8004 42.4C30.8004 42.3 30.8004 42.2 30.7004 42.1C30.6004 42 30.5004 42 30.4004 42C30.3004 42 30.2004 42 30.1004 42.1L13.4004 58.6C13.4004 58.7 13.4004 58.7 13.4004 58.8Z" fill="#F5F4F0"/>
<path d="M86.7 76C86.8 76 86.9 76.1 86.9 76.1C87 76.1 87 76.1 87.1 76.1C87.2 76.1 87.2 76 87.2 76L103.9 59.3L104 59.2C104 59.1 104 59.1 104 59C104 58.9 104 58.9 104 58.8C104 58.7 103.9 58.7 103.9 58.7L87.3 42C87.2 41.9 87.1 41.9 87 41.9C86.9 41.9 86.8 41.9 86.7 42C86.6 42.1 86.6 42.2 86.6 42.3C86.6 42.4 86.6 42.5 86.7 42.6L103 58.9L102.6 59.4L86.6 75.3C86.5 75.4 86.5 75.4 86.5 75.5C86.5 75.6 86.5 75.7 86.5 75.8C86.6 75.9 86.6 76 86.7 76Z" fill="#F5F4F0"/>
<path d="M109.3 8.5C109.3 8.4 109.2 8.2 109.2 8.1C109.1 8 109 8 108.8 8H8.5C8.4 8 8.2 8.1 8.1 8.1C8.1 8.2 8 8.4 8 8.5V108.8C8 108.9 8.1 109.1 8.1 109.2C8.2 109.3 8.3 109.3 8.5 109.3H108.8C108.9 109.3 109.1 109.2 109.2 109.2C109.3 109.1 109.3 109 109.3 108.8V8.5ZM108.3 108.3H9V9H108.3V108.3Z" fill="#F5F4F0"/>
</svg>
