<svg width="307" height="394" viewBox="0 0 307 394" fill="none" xmlns="http://www.w3.org/2000/svg">
<path d="M48.7849 46.3539C48.7849 53.7833 48.6022 59.0508 48.2368 62.1565C47.9019 65.2318 46.8057 68.0482 44.9484 70.6059C43.1215 73.1635 40.64 75.1274 37.5038 76.4976C34.3677 77.8678 30.7139 78.5529 26.5425 78.5529C22.5842 78.5529 19.0218 77.9134 15.8552 76.6346C12.719 75.3254 10.1918 73.3767 8.2736 70.7886C6.35537 68.2005 5.21356 65.384 4.84819 62.3392C4.48281 59.2944 4.30012 53.966 4.30012 46.3539V33.7027C4.30012 26.2734 4.46758 21.0211 4.80251 17.9458C5.16789 14.8401 6.26403 12.0084 8.09091 9.45077C9.94825 6.89313 12.445 4.92922 15.5812 3.55905C18.7173 2.18889 22.3711 1.5038 26.5425 1.5038C30.5008 1.5038 34.048 2.15844 37.1841 3.46771C40.3507 4.74653 42.8932 6.67999 44.8114 9.26808C46.7296 11.8562 47.8714 14.6726 48.2368 17.7174C48.6022 20.7623 48.7849 26.0907 48.7849 33.7027V46.3539ZM29.5569 22.0563C29.5569 18.6157 29.3589 16.4234 28.9631 15.4795C28.5977 14.5052 27.8213 14.018 26.6338 14.018C25.6291 14.018 24.8526 14.4138 24.3046 15.2055C23.7869 15.9667 23.5281 18.2503 23.5281 22.0563V56.5845C23.5281 60.8777 23.6956 63.5267 24.0305 64.5315C24.3959 65.5363 25.218 66.0387 26.4968 66.0387C27.8061 66.0387 28.6434 65.4601 29.0088 64.3031C29.3742 63.1461 29.5569 60.3905 29.5569 56.0364V22.0563ZM98.774 3.05666V52.474C98.774 58.0765 98.5914 62.0195 98.226 64.3031C97.8606 66.5563 96.7797 68.8856 94.9832 71.291C93.1868 73.6659 90.8118 75.4776 87.8584 76.726C84.9354 77.9439 81.4795 78.5529 77.4908 78.5529C73.0758 78.5529 69.1784 77.8221 65.7987 76.3606C62.4189 74.8991 59.8917 72.9961 58.2171 70.6516C56.5425 68.3071 55.5529 65.8408 55.2484 63.2527C54.9439 60.6341 54.7917 55.1534 54.7917 46.8107V3.05666H74.0197V58.5027C74.0197 61.7303 74.1872 63.8007 74.5221 64.7142C74.8875 65.5972 75.603 66.0387 76.6687 66.0387C77.8866 66.0387 78.663 65.5515 78.998 64.5772C79.3633 63.5724 79.546 61.2279 79.546 57.5436V3.05666H98.774ZM105.283 3.05666H118.894C127.967 3.05666 134.102 3.40681 137.299 4.10712C140.527 4.80743 143.146 6.60387 145.155 9.49644C147.195 12.3586 148.215 16.941 148.215 23.2438C148.215 28.9985 147.5 32.8654 146.069 34.8445C144.637 36.8237 141.821 38.0111 137.619 38.407C141.425 39.3509 143.983 40.6145 145.292 42.1978C146.601 43.7811 147.408 45.2426 147.713 46.5823C148.048 47.8916 148.215 51.5301 148.215 57.498V77H130.357V52.4283C130.357 48.4701 130.038 46.019 129.398 45.0751C128.789 44.1312 127.16 43.6593 124.511 43.6593V77H105.283V3.05666ZM124.511 15.7079V32.1499C126.673 32.1499 128.18 31.8606 129.033 31.2821C129.916 30.6731 130.357 28.7397 130.357 25.4817V21.4169C130.357 19.0724 129.931 17.5348 129.078 16.804C128.256 16.0732 126.734 15.7079 124.511 15.7079Z" fill="#485C3F"/>
<path d="M161.611 114.194H142.383V101.314C142.383 97.5691 142.17 95.2399 141.744 94.3264C141.348 93.3825 140.45 92.9106 139.049 92.9106C137.466 92.9106 136.461 93.4739 136.035 94.6004C135.608 95.727 135.395 98.1629 135.395 101.908V136.254C135.395 139.846 135.608 142.191 136.035 143.287C136.461 144.383 137.42 144.931 138.912 144.931C140.343 144.931 141.272 144.383 141.698 143.287C142.155 142.191 142.383 139.618 142.383 135.568V126.297H161.611V129.174C161.611 136.817 161.063 142.237 159.967 145.434C158.901 148.631 156.511 151.432 152.796 153.837C149.112 156.243 144.56 157.445 139.14 157.445C133.508 157.445 128.864 156.425 125.21 154.385C121.557 152.345 119.136 149.529 117.949 145.936C116.761 142.313 116.167 136.878 116.167 129.631V108.028C116.167 102.7 116.35 98.7109 116.715 96.062C117.081 93.3825 118.162 90.8096 119.958 88.3433C121.785 85.877 124.297 83.9436 127.494 82.543C130.722 81.1119 134.421 80.3964 138.592 80.3964C144.256 80.3964 148.93 81.4925 152.614 83.6848C156.298 85.877 158.719 88.6174 159.876 91.9058C161.033 95.1637 161.611 100.249 161.611 107.16V114.194ZM200.776 81.9492L211.783 155.893H192.098L191.139 142.602H184.243L183.101 155.893H163.188L172.962 81.9492H200.776ZM190.591 129.494C189.617 121.121 188.642 110.784 187.668 98.4826C185.719 112.611 184.501 122.948 184.014 129.494H190.591ZM214.136 81.9492H227.746C236.82 81.9492 242.955 82.2994 246.152 82.9997C249.38 83.7 251.998 85.4964 254.008 88.389C256.048 91.2511 257.068 95.8336 257.068 102.136C257.068 107.891 256.352 111.758 254.921 113.737C253.49 115.716 250.674 116.904 246.472 117.3C250.278 118.243 252.836 119.507 254.145 121.09C255.454 122.674 256.261 124.135 256.566 125.475C256.9 126.784 257.068 130.423 257.068 136.391V155.893H239.21V131.321C239.21 127.363 238.89 124.912 238.251 123.968C237.642 123.024 236.013 122.552 233.364 122.552V155.893H214.136V81.9492ZM233.364 94.6004V111.042C235.526 111.042 237.033 110.753 237.886 110.175C238.769 109.566 239.21 107.632 239.21 104.374V100.309C239.21 97.965 238.784 96.4273 237.931 95.6966C237.109 94.9658 235.587 94.6004 233.364 94.6004ZM263.623 81.9492H295.685V96.747H282.851V110.768H294.863V124.835H282.851V141.095H296.964V155.893H263.623V81.9492Z" fill="#485C3F"/>
<path d="M116.715 161.709H149.28V176.507H135.943V190.528H147.818V204.595H135.943V235.652H116.715V161.709ZM196.985 205.006C196.985 212.436 196.803 217.703 196.437 220.809C196.102 223.884 195.006 226.701 193.149 229.258C191.322 231.816 188.84 233.78 185.704 235.15C182.568 236.52 178.914 237.205 174.743 237.205C170.785 237.205 167.222 236.566 164.056 235.287C160.919 233.978 158.392 232.029 156.474 229.441C154.556 226.853 153.414 224.036 153.049 220.992C152.683 217.947 152.5 212.618 152.5 205.006V192.355C152.5 184.926 152.668 179.673 153.003 176.598C153.368 173.492 154.464 170.661 156.291 168.103C158.149 165.545 160.645 163.582 163.782 162.211C166.918 160.841 170.571 160.156 174.743 160.156C178.701 160.156 182.248 160.811 185.384 162.12C188.551 163.399 191.094 165.332 193.012 167.92C194.93 170.509 196.072 173.325 196.437 176.37C196.803 179.415 196.985 184.743 196.985 192.355V205.006ZM177.757 180.709C177.757 177.268 177.559 175.076 177.163 174.132C176.798 173.158 176.022 172.67 174.834 172.67C173.829 172.67 173.053 173.066 172.505 173.858C171.987 174.619 171.728 176.903 171.728 180.709V215.237C171.728 219.53 171.896 222.179 172.231 223.184C172.596 224.189 173.418 224.691 174.697 224.691C176.006 224.691 176.844 224.112 177.209 222.955C177.575 221.798 177.757 219.043 177.757 214.689V180.709ZM203.266 161.709H216.876C225.95 161.709 232.085 162.059 235.282 162.759C238.51 163.46 241.128 165.256 243.138 168.149C245.178 171.011 246.198 175.593 246.198 181.896C246.198 187.651 245.482 191.518 244.051 193.497C242.62 195.476 239.804 196.663 235.602 197.059C239.408 198.003 241.966 199.267 243.275 200.85C244.584 202.433 245.391 203.895 245.696 205.235C246.031 206.544 246.198 210.182 246.198 216.15V235.652H228.34V211.081C228.34 207.122 228.02 204.671 227.381 203.727C226.772 202.784 225.143 202.312 222.494 202.312V235.652H203.266V161.709ZM222.494 174.36V190.802C224.656 190.802 226.163 190.513 227.016 189.934C227.899 189.325 228.34 187.392 228.34 184.134V180.069C228.34 177.725 227.914 176.187 227.061 175.456C226.239 174.726 224.717 174.36 222.494 174.36Z" fill="#485C3F"/>
<path d="M49.744 276.204H30.516V263.324C30.516 259.579 30.3028 257.25 29.8766 256.336C29.4807 255.392 28.5825 254.92 27.1819 254.92C25.5986 254.92 24.5938 255.484 24.1675 256.61C23.7413 257.737 23.5281 260.173 23.5281 263.918V298.263C23.5281 301.856 23.7413 304.201 24.1675 305.297C24.5938 306.393 25.5529 306.941 27.0449 306.941C28.476 306.941 29.4046 306.393 29.8309 305.297C30.2876 304.201 30.516 301.628 30.516 297.578V288.307H49.744V291.184C49.744 298.827 49.1959 304.246 48.0998 307.443C47.0341 310.64 44.6439 313.442 40.9292 315.847C37.245 318.252 32.693 319.455 27.2733 319.455C21.6403 319.455 16.997 318.435 13.3432 316.395C9.68944 314.355 7.26881 311.539 6.08134 307.946C4.89386 304.322 4.30012 298.887 4.30012 291.641V270.038C4.30012 264.709 4.48281 260.721 4.84819 258.072C5.21356 255.392 6.29447 252.819 8.09091 250.353C9.9178 247.887 12.4298 245.953 15.6268 244.553C18.8543 243.122 22.5538 242.406 26.7252 242.406C32.3885 242.406 37.0623 243.502 40.7466 245.695C44.4308 247.887 46.8514 250.627 48.0084 253.916C49.1655 257.174 49.744 262.258 49.744 269.17V276.204ZM74.9331 243.959V303.105H86.6252V317.902H55.7051V243.959H74.9331ZM109.622 243.959V317.902H90.3941V243.959H109.622ZM175.734 243.959V317.902H158.926V267.983L152.212 317.902H140.292L133.213 269.124V317.902H116.405V243.959H141.297C142.027 248.404 142.804 253.642 143.626 259.67L146.275 278.487L150.66 243.959H175.734ZM215.721 243.959L226.728 317.902H207.043L206.084 304.612H199.187L198.045 317.902H178.132L187.906 243.959H215.721ZM205.536 291.504C204.561 283.131 203.587 272.793 202.613 260.492C200.664 274.62 199.446 284.957 198.959 291.504H205.536ZM267.811 243.959V258.757H256.393V317.902H237.165V258.757H225.792V243.959H267.811ZM271.26 243.959H303.322V258.757H290.488V272.778H302.5V286.845H290.488V303.105H304.601V317.902H271.26V243.959Z" fill="#485C3F"/>
<path d="M17.5067 331.149C17.5067 331.149 16.6784 331.208 15.6529 331.208C15.0613 331.208 14.233 331.149 14.233 331.149L9.14489 340.852C8.82935 341.463 8.65186 341.897 8.63214 341.995C8.63214 341.956 8.63214 341.502 8.47437 340.773L6.48252 331.168C6.48252 331.168 5.98949 331.208 5.04286 331.208C4.09624 331.208 3.16934 331.149 3.16934 331.149L3.11018 331.602C4.07652 331.681 4.17513 332.194 4.17513 332.628C4.17513 333.022 3.99764 333.851 3.85959 334.62L2.5777 341.266C2.28188 342.824 2.16356 343.336 1.78885 343.691C1.49303 343.968 1.03944 344.066 0.763345 344.106L0.704181 344.539C0.704181 344.539 1.5522 344.461 2.51854 344.461C3.42572 344.461 4.31318 344.539 4.31318 344.539L4.37234 344.106C3.54405 343.968 3.38628 343.672 3.38628 343.159C3.38628 342.804 3.5046 342.094 3.60321 341.502L5.20063 333.081C5.20063 333.081 5.20063 333.397 5.37813 334.284L7.4883 344.5H8.33632L13.7005 334.284C13.9963 333.712 14.1541 333.239 14.1738 333.2L13.1483 342.153C13.0891 342.587 13.0103 343.258 12.6553 343.613C12.32 343.948 11.8862 344.086 11.6495 344.106L11.5903 344.539C11.5903 344.539 12.5961 344.461 13.74 344.461C14.7655 344.461 15.8501 344.539 15.8501 344.539L15.9093 344.106C14.9627 344.027 14.8641 343.415 14.8641 342.922C14.8641 342.666 14.9232 342.055 14.9824 341.384L15.7515 334.146C15.8699 333.18 15.8896 332.509 16.3037 332.056C16.5798 331.76 16.994 331.642 17.4476 331.602L17.5067 331.149ZM26.0958 338.367C26.0958 335.724 24.952 334.383 22.5854 334.383C19.5681 334.383 17.7734 337.183 17.7734 340.674C17.7734 343.336 18.937 344.677 21.3035 344.677C24.3012 344.677 26.0958 341.877 26.0958 338.367ZM24.2617 338.288C24.2617 339.609 23.9265 342.055 22.7826 343.218C22.3882 343.632 21.9149 343.889 21.3035 343.889C20.1005 343.889 19.6075 342.962 19.6075 340.753C19.6075 339.451 19.9428 337.006 21.0866 335.823C21.481 335.428 21.9741 335.172 22.5657 335.172C23.7884 335.172 24.2617 336.099 24.2617 338.288ZM34.9208 335.349C34.9208 334.422 34.1122 334.383 33.8755 334.383C32.85 334.383 31.9823 335.349 30.9371 336.828C31.0554 336.454 31.1737 335.842 31.1737 335.408C31.1737 334.56 30.6215 334.383 30.0891 334.383C29.1424 334.383 28.3733 335.192 27.7028 336.335L28.1169 336.631C28.2155 336.473 28.5705 335.803 28.9847 335.803C29.2608 335.803 29.3791 335.902 29.3791 336.217C29.3791 337.006 28.6888 341.502 28.0775 344.5H29.8524L30.9173 337.637C31.2526 337.183 32.2978 335.961 32.7711 335.961C33.0275 335.961 33.1261 336.04 33.3431 336.296C33.4811 336.454 33.7572 336.513 33.9347 336.513C34.4672 336.513 34.9208 336.02 34.9208 335.349ZM42.5571 336.454C42.5571 335.685 42.2021 334.383 39.875 334.383C36.7984 334.383 34.8855 337.381 34.8855 340.911C34.8855 343.672 36.2068 344.677 37.9423 344.677C39.9933 344.677 41.1766 343.258 41.571 342.725L41.2752 342.41C41.0977 342.567 40.1511 343.435 38.7903 343.435C37.5873 343.435 36.6998 342.765 36.6998 340.733C36.6998 340.082 36.7393 339.649 36.7393 339.649C38.7311 339.649 42.5571 339.412 42.5571 336.454ZM40.7427 336.493C40.7427 337.755 39.9144 338.524 38.3959 338.82C37.7648 338.939 37.1732 338.958 36.8182 338.958C37.114 336.75 37.824 335.842 38.4748 335.428C38.8692 335.192 39.2242 335.152 39.5003 335.152C40.6835 335.152 40.7427 336.099 40.7427 336.493ZM53.4252 334.58H50.822C50.822 334.58 51.1178 332.667 51.2953 331.938L50.0726 332.076L49.9937 332.411C49.8162 333.18 49.5993 333.87 49.1457 334.344C48.7907 334.718 48.2582 334.915 47.7652 334.975L47.706 335.408H49.0471L48.1202 340.773C47.9427 341.759 47.8638 342.508 47.8638 342.883C47.8638 343.849 48.199 344.677 49.5401 344.677C50.4473 344.677 51.3939 344.263 52.5772 342.666L52.2616 342.331C51.7686 342.804 51.1375 343.415 50.467 343.415C49.757 343.415 49.5993 342.942 49.5993 342.449C49.5993 342.094 49.7176 341.246 49.757 341.009L50.6839 335.408H53.3069L53.4252 334.58ZM62.56 342.686L62.1458 342.39C62.0472 342.567 61.6528 343.258 61.2387 343.258C60.9626 343.258 60.8837 343.139 60.8837 342.824C60.8837 342.548 60.9626 342.055 61.2387 340.714L61.5542 339.017C61.7514 338.071 61.9881 336.868 61.9881 336.178C61.9881 335.704 61.9486 334.383 59.9765 334.383C58.2213 334.383 57.1958 335.665 56.6042 336.533L56.8803 334.876C57.1761 332.983 57.4127 331.523 57.8269 329.61L57.6888 329.512C57.3733 329.67 56.9394 329.729 56.3478 329.808C56.0323 329.847 55.0856 329.906 54.6715 329.906L54.5926 330.38C55.5392 330.439 55.7364 330.616 55.7364 331.228C55.7364 332.056 54.2968 340.615 53.6065 344.5H55.3223L56.4858 337.361C56.8605 336.888 57.9452 335.625 59.1088 335.625C60.016 335.625 60.1737 336.059 60.1737 336.69C60.1737 337.262 59.8582 338.899 59.799 339.136L59.4243 341.049C59.2468 341.976 59.0496 343.041 59.0496 343.553C59.0496 344.046 59.2074 344.658 60.1934 344.658C61.1203 344.658 61.8895 343.849 62.56 342.686ZM73.0929 342.686L72.6787 342.39C72.6195 342.508 72.2448 343.238 71.811 343.238C71.5349 343.238 71.4165 343.139 71.4165 342.824C71.4165 342.311 72.2251 336.927 72.7576 334.422L72.5407 334.284L71.0616 335.014C70.9038 334.876 70.2727 334.383 69.05 334.383C67.5709 334.383 66.3087 335.211 65.4607 336.552C65.3424 336.73 64.1986 338.643 64.1986 341.246C64.1986 344.303 65.5988 344.658 66.5454 344.658C68.0048 344.658 69.2078 343.336 69.7994 342.41C69.7402 342.626 69.6219 343.179 69.6219 343.632C69.6219 344.48 70.1938 344.658 70.7066 344.658C71.6532 344.658 72.4223 343.849 73.0929 342.686ZM70.8446 335.507L69.8388 341.68C69.0105 342.705 68.1428 343.396 67.3934 343.396C66.1904 343.396 66.0326 342.153 66.0326 341.305C66.0326 339.925 66.3087 338.169 66.999 336.927C67.5117 336 68.202 335.29 69.6022 335.29C70.1741 335.29 70.6671 335.428 70.8446 335.507ZM83.8802 342.686L83.4661 342.39C83.3872 342.528 82.9731 343.258 82.5589 343.258C82.2828 343.258 82.2039 343.139 82.2039 342.824C82.2039 342.548 82.2828 342.055 82.5392 340.714L82.8745 339.017C83.0717 338.071 83.3083 336.868 83.3083 336.178C83.3083 335.704 83.2689 334.383 81.2968 334.383C79.4824 334.383 78.4175 335.763 77.8258 336.611C77.8258 336.611 78.0033 335.941 78.0033 335.408C78.0033 334.56 77.4511 334.383 76.9186 334.383C75.972 334.383 75.2029 335.192 74.5324 336.335L74.9465 336.631C75.0451 336.454 75.4198 335.803 75.8142 335.803C76.0903 335.803 76.2087 335.902 76.2087 336.217C76.2087 337.006 75.479 341.502 74.8873 344.5H76.6425L77.8061 337.361C78.1611 336.888 79.2655 335.625 80.429 335.625C81.3362 335.625 81.494 336.059 81.494 336.69C81.494 337.262 81.1784 338.899 81.1193 339.136L80.7446 341.049C80.5671 341.976 80.3699 343.041 80.3699 343.553C80.3699 344.046 80.5276 344.658 81.5137 344.658C82.4406 344.658 83.2097 343.849 83.8802 342.686ZM96.9316 336.454C96.9316 335.685 96.5766 334.383 94.2495 334.383C91.173 334.383 89.26 337.381 89.26 340.911C89.26 343.672 90.5813 344.677 92.3168 344.677C94.3678 344.677 95.5511 343.258 95.9455 342.725L95.6497 342.41C95.4722 342.567 94.5256 343.435 93.1648 343.435C91.9618 343.435 91.0744 342.765 91.0744 340.733C91.0744 340.082 91.1138 339.649 91.1138 339.649C93.1056 339.649 96.9316 339.412 96.9316 336.454ZM95.1172 336.493C95.1172 337.755 94.2889 338.524 92.7704 338.82C92.1393 338.939 91.5477 338.958 91.1927 338.958C91.4885 336.75 92.1985 335.842 92.8493 335.428C93.2437 335.192 93.5987 335.152 93.8748 335.152C95.0581 335.152 95.1172 336.099 95.1172 336.493ZM106.179 335.468C106.179 334.896 105.981 334.383 105.114 334.383C104.325 334.383 104.069 334.975 104.069 335.33C104.069 335.685 104.187 335.882 104.325 336.079C104.443 336.237 104.562 336.414 104.562 336.651C104.562 337.223 103.654 339.096 101.584 343.041C101.544 342.508 101.347 340.299 100.736 335.842C100.637 335.113 100.558 334.383 99.6312 334.383C98.6452 334.383 97.876 335.251 97.245 336.335L97.6591 336.631C97.8366 336.335 98.1324 335.803 98.5268 335.803C98.8621 335.803 98.9213 335.98 98.9804 336.414L100.223 344.737L101.524 344.559C102.175 343.534 104.128 340.299 105.212 338.189C105.508 337.617 106.179 336.375 106.179 335.468ZM114.621 336.454C114.621 335.685 114.266 334.383 111.939 334.383C108.863 334.383 106.95 337.381 106.95 340.911C106.95 343.672 108.271 344.677 110.007 344.677C112.058 344.677 113.241 343.258 113.635 342.725L113.34 342.41C113.162 342.567 112.215 343.435 110.855 343.435C109.652 343.435 108.764 342.765 108.764 340.733C108.764 340.082 108.804 339.649 108.804 339.649C110.795 339.649 114.621 339.412 114.621 336.454ZM112.807 336.493C112.807 337.755 111.979 338.524 110.46 338.82C109.829 338.939 109.238 338.958 108.883 338.958C109.178 336.75 109.888 335.842 110.539 335.428C110.934 335.192 111.289 335.152 111.565 335.152C112.748 335.152 112.807 336.099 112.807 336.493ZM122.942 335.349C122.942 334.422 122.133 334.383 121.896 334.383C120.871 334.383 120.003 335.349 118.958 336.828C119.076 336.454 119.195 335.842 119.195 335.408C119.195 334.56 118.642 334.383 118.11 334.383C117.163 334.383 116.394 335.192 115.724 336.335L116.138 336.631C116.236 336.473 116.591 335.803 117.006 335.803C117.282 335.803 117.4 335.902 117.4 336.217C117.4 337.006 116.71 341.502 116.098 344.5H117.873L118.938 337.637C119.273 337.183 120.319 335.961 120.792 335.961C121.048 335.961 121.147 336.04 121.364 336.296C121.502 336.454 121.778 336.513 121.956 336.513C122.488 336.513 122.942 336.02 122.942 335.349ZM140.423 335.468C140.423 334.896 140.226 334.383 139.377 334.383C138.569 334.383 138.313 334.975 138.313 335.33C138.313 335.645 138.411 335.842 138.529 336.02C138.687 336.237 138.806 336.414 138.806 336.651C138.806 337.203 138.076 338.919 136.084 342.883L135.847 341.108L134.96 334.501H133.323L129.951 342.843C129.892 342.074 129.576 338.051 129.26 335.783C129.162 335.054 129.044 334.383 128.176 334.383C127.209 334.383 126.44 335.251 125.809 336.335L126.223 336.631C126.401 336.335 126.697 335.803 127.071 335.803C127.407 335.803 127.466 335.961 127.525 336.414L128.61 344.717L130.227 344.539L133.008 337.696C133.284 336.927 133.461 336.513 133.52 336.276C133.54 336.533 133.619 337.203 133.698 337.696L134.644 344.717L136.025 344.539C138.096 340.891 139.161 338.801 139.456 338.189C139.732 337.657 140.423 336.414 140.423 335.468ZM148.923 336.454C148.923 335.685 148.568 334.383 146.24 334.383C143.164 334.383 141.251 337.381 141.251 340.911C141.251 343.672 142.572 344.677 144.308 344.677C146.359 344.677 147.542 343.258 147.937 342.725L147.641 342.41C147.463 342.567 146.517 343.435 145.156 343.435C143.953 343.435 143.065 342.765 143.065 340.733C143.065 340.082 143.105 339.649 143.105 339.649C145.097 339.649 148.923 339.412 148.923 336.454ZM147.108 336.493C147.108 337.755 146.28 338.524 144.761 338.82C144.13 338.939 143.539 338.958 143.184 338.958C143.48 336.75 144.189 335.842 144.84 335.428C145.235 335.192 145.59 335.152 145.866 335.152C147.049 335.152 147.108 336.099 147.108 336.493ZM163.124 342.686L162.709 342.39C162.631 342.528 162.216 343.258 161.802 343.258C161.526 343.258 161.447 343.139 161.447 342.824C161.447 342.548 161.526 342.055 161.783 340.714L162.118 339.017C162.315 338.071 162.552 336.868 162.552 336.178C162.552 335.704 162.512 334.383 160.54 334.383C158.726 334.383 157.661 335.763 157.069 336.611C157.069 336.611 157.247 335.941 157.247 335.408C157.247 334.56 156.694 334.383 156.162 334.383C155.215 334.383 154.446 335.192 153.776 336.335L154.19 336.631C154.288 336.454 154.663 335.803 155.058 335.803C155.334 335.803 155.452 335.902 155.452 336.217C155.452 337.006 154.722 341.502 154.131 344.5H155.886L157.049 337.361C157.404 336.888 158.509 335.625 159.672 335.625C160.58 335.625 160.737 336.059 160.737 336.69C160.737 337.262 160.422 338.899 160.363 339.136L159.988 341.049C159.81 341.976 159.613 343.041 159.613 343.553C159.613 344.046 159.771 344.658 160.757 344.658C161.684 344.658 162.453 343.849 163.124 342.686ZM172.424 336.454C172.424 335.685 172.069 334.383 169.742 334.383C166.665 334.383 164.752 337.381 164.752 340.911C164.752 343.672 166.074 344.677 167.809 344.677C169.86 344.677 171.044 343.258 171.438 342.725L171.142 342.41C170.965 342.567 170.018 343.435 168.657 343.435C167.454 343.435 166.567 342.765 166.567 340.733C166.567 340.082 166.606 339.649 166.606 339.649C168.598 339.649 172.424 339.412 172.424 336.454ZM170.61 336.493C170.61 337.755 169.781 338.524 168.263 338.82C167.632 338.939 167.04 338.958 166.685 338.958C166.981 336.75 167.691 335.842 168.342 335.428C168.736 335.192 169.091 335.152 169.367 335.152C170.551 335.152 170.61 336.099 170.61 336.493ZM181.356 336.454C181.356 335.685 181.001 334.383 178.674 334.383C175.597 334.383 173.684 337.381 173.684 340.911C173.684 343.672 175.005 344.677 176.741 344.677C178.792 344.677 179.975 343.258 180.37 342.725L180.074 342.41C179.896 342.567 178.95 343.435 177.589 343.435C176.386 343.435 175.498 342.765 175.498 340.733C175.498 340.082 175.538 339.649 175.538 339.649C177.53 339.649 181.356 339.412 181.356 336.454ZM179.541 336.493C179.541 337.755 178.713 338.524 177.194 338.82C176.563 338.939 175.972 338.958 175.617 338.958C175.913 336.75 176.623 335.842 177.273 335.428C177.668 335.192 178.023 335.152 178.299 335.152C179.482 335.152 179.541 336.099 179.541 336.493ZM192.121 329.61L191.983 329.512C191.668 329.67 191.234 329.729 190.662 329.808C190.346 329.847 189.38 329.906 188.966 329.906L188.887 330.38C189.814 330.439 190.031 330.616 190.031 331.228C190.031 331.642 189.853 332.687 189.814 332.943L189.498 334.896C189.222 334.699 188.532 334.383 187.585 334.383C186.047 334.383 184.726 335.251 183.858 336.592C183.74 336.769 182.616 338.603 182.616 341.285C182.616 344.461 184.253 344.658 185.022 344.658C186.698 344.658 187.901 343.1 188.374 342.41C188.335 342.567 188.197 343.159 188.197 343.632C188.197 344.48 188.729 344.658 189.262 344.658C190.208 344.658 190.958 343.849 191.628 342.686L191.214 342.39C191.076 342.626 190.721 343.258 190.307 343.258C190.031 343.258 189.952 343.139 189.952 342.824C189.952 342.055 191.885 330.301 192.121 329.61ZM189.4 335.507L188.394 341.68C187.566 342.705 186.619 343.396 185.87 343.396C184.627 343.396 184.45 342.153 184.45 341.305C184.45 339.925 184.726 338.189 185.416 336.927C185.929 336 186.678 335.29 188.118 335.29C188.71 335.29 189.222 335.428 189.4 335.507ZM202.754 334.58H200.151C200.151 334.58 200.446 332.667 200.624 331.938L199.401 332.076L199.322 332.411C199.145 333.18 198.928 333.87 198.474 334.344C198.119 334.718 197.587 334.915 197.094 334.975L197.035 335.408H198.376L197.449 340.773C197.271 341.759 197.192 342.508 197.192 342.883C197.192 343.849 197.528 344.677 198.869 344.677C199.776 344.677 200.723 344.263 201.906 342.666L201.59 342.331C201.097 342.804 200.466 343.415 199.796 343.415C199.086 343.415 198.928 342.942 198.928 342.449C198.928 342.094 199.046 341.246 199.086 341.009L200.013 335.408H202.636L202.754 334.58ZM211.435 338.367C211.435 335.724 210.291 334.383 207.925 334.383C204.907 334.383 203.113 337.183 203.113 340.674C203.113 343.336 204.276 344.677 206.643 344.677C209.64 344.677 211.435 341.877 211.435 338.367ZM209.601 338.288C209.601 339.609 209.266 342.055 208.122 343.218C207.727 343.632 207.254 343.889 206.643 343.889C205.44 343.889 204.947 342.962 204.947 340.753C204.947 339.451 205.282 337.006 206.426 335.823C206.82 335.428 207.313 335.172 207.905 335.172C209.128 335.172 209.601 336.099 209.601 338.288ZM8.39548 357.645C8.39548 357.192 8.07994 356.383 5.83172 356.383C3.58349 356.383 2.4791 357.645 2.4791 359.105C2.4791 360.229 2.8538 360.84 3.93847 361.649L5.14147 362.516C5.85144 363.009 6.10781 363.502 6.10781 364.193C6.10781 365.81 4.80621 365.889 4.29346 365.889C3.5046 365.889 3.38628 365.494 3.20878 365.139C3.05101 364.765 2.93269 364.35 2.32133 364.35C1.69025 364.35 1.33526 364.824 1.33526 365.356C1.33526 366.184 2.24244 366.677 4.13568 366.677C6.08809 366.677 7.68552 365.77 7.68552 363.719C7.68552 362.595 7.35025 361.865 6.1867 361.037L4.96398 360.189C4.09624 359.578 4.03708 359.065 4.03708 358.631C4.03708 357.685 4.64844 357.172 5.57534 357.172C6.22614 357.172 6.38391 357.527 6.52196 357.842C6.71917 358.257 6.85722 358.611 7.42914 358.611C7.94189 358.611 8.39548 358.276 8.39548 357.645ZM13.9435 351.61L13.8054 351.512C13.4899 351.67 13.0757 351.729 12.5038 351.808C12.1686 351.847 11.2022 351.906 10.8078 351.906L10.7289 352.38C11.6558 352.439 11.8727 352.636 11.8727 353.228C11.8727 353.938 10.4725 361.392 10.0387 364.469C9.95978 365.001 9.92034 365.415 9.92034 365.613C9.92034 366.106 10.0781 366.658 11.0445 366.658C11.9911 366.658 12.7405 365.849 13.411 364.686L12.9969 364.39C12.918 364.587 12.5038 365.258 12.0897 365.258C11.8333 365.258 11.7347 365.139 11.7347 364.824C11.7347 364.548 11.9714 363.029 12.2869 360.978C12.8785 357.31 13.7068 352.537 13.9435 351.61ZM23.1638 360.367C23.1638 357.724 22.02 356.383 19.6534 356.383C16.6361 356.383 14.8414 359.183 14.8414 362.674C14.8414 365.336 16.005 366.677 18.3715 366.677C21.3692 366.677 23.1638 363.877 23.1638 360.367ZM21.3297 360.288C21.3297 361.609 20.9945 364.055 19.8506 365.218C19.4562 365.632 18.9829 365.889 18.3715 365.889C17.1685 365.889 16.6755 364.962 16.6755 362.753C16.6755 361.451 17.0108 359.006 18.1546 357.823C18.549 357.428 19.0421 357.172 19.6337 357.172C20.8564 357.172 21.3297 358.099 21.3297 360.288ZM38.694 357.468C38.694 356.896 38.4968 356.383 37.6488 356.383C36.8402 356.383 36.5838 356.975 36.5838 357.33C36.5838 357.645 36.6824 357.842 36.8008 358.02C36.9585 358.237 37.0769 358.414 37.0769 358.651C37.0769 359.203 36.3472 360.919 34.3553 364.883L34.1187 363.108L33.2312 356.501H31.5943L28.222 364.843C28.1628 364.074 27.8473 360.051 27.5318 357.783C27.4331 357.054 27.3148 356.383 26.4471 356.383C25.4807 356.383 24.7116 357.251 24.0805 358.335L24.4947 358.631C24.6722 358.335 24.968 357.803 25.3427 357.803C25.678 357.803 25.7371 357.961 25.7963 358.414L26.881 366.717L28.4981 366.539L31.2788 359.696C31.5549 358.927 31.7324 358.513 31.7916 358.276C31.8113 358.533 31.8902 359.203 31.969 359.696L32.9157 366.717L34.2962 366.539C36.3669 362.891 37.4318 360.801 37.7277 360.189C38.0038 359.657 38.694 358.414 38.694 357.468ZM56.5298 351.61L56.3917 351.512C56.0762 351.67 55.6423 351.729 55.0704 351.808C54.7548 351.847 53.7885 351.906 53.3743 351.906L53.2955 352.38C54.2224 352.439 54.4393 352.616 54.4393 353.228C54.4393 353.642 54.2618 354.687 54.2224 354.943L53.9068 356.896C53.6307 356.699 52.9405 356.383 51.9939 356.383C50.4556 356.383 49.1343 357.251 48.2665 358.592C48.1482 358.769 47.0241 360.603 47.0241 363.285C47.0241 366.461 48.661 366.658 49.4301 366.658C51.1064 366.658 52.3094 365.1 52.7827 364.41C52.7433 364.567 52.6052 365.159 52.6052 365.632C52.6052 366.48 53.1377 366.658 53.6702 366.658C54.6168 366.658 55.3662 365.849 56.0367 364.686L55.6226 364.39C55.4845 364.626 55.1295 365.258 54.7154 365.258C54.4393 365.258 54.3604 365.139 54.3604 364.824C54.3604 364.055 56.2931 352.301 56.5298 351.61ZM53.8082 357.507L52.8024 363.68C51.9741 364.705 51.0275 365.396 50.2781 365.396C49.0357 365.396 48.8582 364.153 48.8582 363.305C48.8582 361.925 49.1343 360.189 49.8245 358.927C50.3373 358 51.0867 357.29 52.5263 357.29C53.118 357.29 53.6307 357.428 53.8082 357.507ZM65.8766 360.367C65.8766 357.724 64.7327 356.383 62.3662 356.383C59.3488 356.383 57.5542 359.183 57.5542 362.674C57.5542 365.336 58.7177 366.677 61.0843 366.677C64.0819 366.677 65.8766 363.877 65.8766 360.367ZM64.0425 360.288C64.0425 361.609 63.7072 364.055 62.5634 365.218C62.169 365.632 61.6957 365.889 61.0843 365.889C59.8813 365.889 59.3883 364.962 59.3883 362.753C59.3883 361.451 59.7235 359.006 60.8674 357.823C61.2618 357.428 61.7548 357.172 62.3465 357.172C63.5692 357.172 64.0425 358.099 64.0425 360.288ZM81.4068 357.468C81.4068 356.896 81.2096 356.383 80.3615 356.383C79.553 356.383 79.2966 356.975 79.2966 357.33C79.2966 357.645 79.3952 357.842 79.5135 358.02C79.6713 358.237 79.7896 358.414 79.7896 358.651C79.7896 359.203 79.0599 360.919 77.0681 364.883L76.8314 363.108L75.944 356.501H74.3071L70.9348 364.843C70.8756 364.074 70.5601 360.051 70.2445 357.783C70.1459 357.054 70.0276 356.383 69.1598 356.383C68.1935 356.383 67.4244 357.251 66.7933 358.335L67.2074 358.631C67.3849 358.335 67.6808 357.803 68.0555 357.803C68.3907 357.803 68.4499 357.961 68.509 358.414L69.5937 366.717L71.2109 366.539L73.9916 359.696C74.2677 358.927 74.4452 358.513 74.5043 358.276C74.524 358.533 74.6029 359.203 74.6818 359.696L75.6284 366.717L77.0089 366.539C79.0797 362.891 80.1446 360.801 80.4404 360.189C80.7165 359.657 81.4068 358.414 81.4068 357.468ZM91.4252 364.686L91.011 364.39C90.9321 364.528 90.518 365.258 90.1039 365.258C89.8278 365.258 89.7489 365.139 89.7489 364.824C89.7489 364.548 89.8278 364.055 90.0841 362.714L90.4194 361.017C90.6166 360.071 90.8533 358.868 90.8533 358.178C90.8533 357.704 90.8138 356.383 88.8417 356.383C87.0273 356.383 85.9624 357.763 85.3707 358.611C85.3707 358.611 85.5482 357.941 85.5482 357.408C85.5482 356.56 84.996 356.383 84.4636 356.383C83.5169 356.383 82.7478 357.192 82.0773 358.335L82.4914 358.631C82.59 358.454 82.9647 357.803 83.3592 357.803C83.6353 357.803 83.7536 357.902 83.7536 358.217C83.7536 359.006 83.0239 363.502 82.4323 366.5H84.1875L85.351 359.361C85.706 358.888 86.8104 357.625 87.974 357.625C88.8811 357.625 89.0389 358.059 89.0389 358.69C89.0389 359.262 88.7234 360.899 88.6642 361.136L88.2895 363.049C88.112 363.976 87.9148 365.041 87.9148 365.553C87.9148 366.046 88.0726 366.658 89.0586 366.658C89.9855 366.658 90.7547 365.849 91.4252 364.686ZM105.699 364.686L105.285 364.39C105.226 364.508 104.851 365.238 104.417 365.238C104.141 365.238 104.023 365.139 104.023 364.824C104.023 364.311 104.831 358.927 105.364 356.422L105.147 356.284L103.668 357.014C103.51 356.876 102.879 356.383 101.656 356.383C100.177 356.383 98.9151 357.211 98.0671 358.552C97.9488 358.73 96.8049 360.643 96.8049 363.246C96.8049 366.303 98.2051 366.658 99.1518 366.658C100.611 366.658 101.814 365.336 102.406 364.41C102.347 364.626 102.228 365.179 102.228 365.632C102.228 366.48 102.8 366.658 103.313 366.658C104.26 366.658 105.029 365.849 105.699 364.686ZM103.451 357.507L102.445 363.68C101.617 364.705 100.749 365.396 99.9998 365.396C98.7968 365.396 98.639 364.153 98.639 363.305C98.639 361.925 98.9151 360.169 99.6054 358.927C100.118 358 100.808 357.29 102.209 357.29C102.78 357.29 103.274 357.428 103.451 357.507ZM116.487 364.686L116.072 364.39C115.994 364.528 115.579 365.258 115.165 365.258C114.889 365.258 114.81 365.139 114.81 364.824C114.81 364.548 114.889 364.055 115.146 362.714L115.481 361.017C115.678 360.071 115.915 358.868 115.915 358.178C115.915 357.704 115.875 356.383 113.903 356.383C112.089 356.383 111.024 357.763 110.432 358.611C110.432 358.611 110.61 357.941 110.61 357.408C110.61 356.56 110.057 356.383 109.525 356.383C108.578 356.383 107.809 357.192 107.139 358.335L107.553 358.631C107.651 358.454 108.026 357.803 108.421 357.803C108.697 357.803 108.815 357.902 108.815 358.217C108.815 359.006 108.085 363.502 107.494 366.5H109.249L110.412 359.361C110.767 358.888 111.872 357.625 113.035 357.625C113.943 357.625 114.1 358.059 114.1 358.69C114.1 359.262 113.785 360.899 113.726 361.136L113.351 363.049C113.173 363.976 112.976 365.041 112.976 365.553C112.976 366.046 113.134 366.658 114.12 366.658C115.047 366.658 115.816 365.849 116.487 364.686ZM127.621 351.61L127.483 351.512C127.168 351.67 126.734 351.729 126.162 351.808C125.846 351.847 124.88 351.906 124.466 351.906L124.387 352.38C125.314 352.439 125.531 352.616 125.531 353.228C125.531 353.642 125.353 354.687 125.314 354.943L124.998 356.896C124.722 356.699 124.032 356.383 123.085 356.383C121.547 356.383 120.226 357.251 119.358 358.592C119.24 358.769 118.115 360.603 118.115 363.285C118.115 366.461 119.752 366.658 120.521 366.658C122.198 366.658 123.401 365.1 123.874 364.41C123.835 364.567 123.697 365.159 123.697 365.632C123.697 366.48 124.229 366.658 124.762 366.658C125.708 366.658 126.458 365.849 127.128 364.686L126.714 364.39C126.576 364.626 126.221 365.258 125.807 365.258C125.531 365.258 125.452 365.139 125.452 364.824C125.452 364.055 127.384 352.301 127.621 351.61ZM124.9 357.507L123.894 363.68C123.066 364.705 122.119 365.396 121.369 365.396C120.127 365.396 119.95 364.153 119.95 363.305C119.95 361.925 120.226 360.189 120.916 358.927C121.429 358 122.178 357.29 123.618 357.29C124.209 357.29 124.722 357.428 124.9 357.507ZM139.457 357.349C139.457 356.422 138.648 356.383 138.411 356.383C137.386 356.383 136.518 357.349 135.473 358.828C135.591 358.454 135.71 357.842 135.71 357.408C135.71 356.56 135.157 356.383 134.625 356.383C133.678 356.383 132.909 357.192 132.239 358.335L132.653 358.631C132.751 358.473 133.106 357.803 133.521 357.803C133.797 357.803 133.915 357.902 133.915 358.217C133.915 359.006 133.225 363.502 132.613 366.5H134.388L135.453 359.637C135.789 359.183 136.834 357.961 137.307 357.961C137.563 357.961 137.662 358.04 137.879 358.296C138.017 358.454 138.293 358.513 138.471 358.513C139.003 358.513 139.457 358.02 139.457 357.349ZM148.316 364.686L147.902 364.39C147.842 364.508 147.468 365.238 147.034 365.238C146.758 365.238 146.639 365.139 146.639 364.824C146.639 364.311 147.448 358.927 147.98 356.422L147.764 356.284L146.284 357.014C146.127 356.876 145.496 356.383 144.273 356.383C142.794 356.383 141.532 357.211 140.684 358.552C140.565 358.73 139.421 360.643 139.421 363.246C139.421 366.303 140.822 366.658 141.768 366.658C143.228 366.658 144.431 365.336 145.022 364.41C144.963 364.626 144.845 365.179 144.845 365.632C144.845 366.48 145.417 366.658 145.929 366.658C146.876 366.658 147.645 365.849 148.316 364.686ZM146.067 357.507L145.062 363.68C144.233 364.705 143.366 365.396 142.616 365.396C141.413 365.396 141.255 364.153 141.255 363.305C141.255 361.925 141.532 360.169 142.222 358.927C142.735 358 143.425 357.29 144.825 357.29C145.397 357.29 145.89 357.428 146.067 357.507ZM159.419 351.61L159.281 351.512C158.965 351.67 158.531 351.729 157.959 351.808C157.644 351.847 156.677 351.906 156.263 351.906L156.184 352.38C157.111 352.439 157.328 352.616 157.328 353.228C157.328 353.642 157.151 354.687 157.111 354.943L156.796 356.896C156.52 356.699 155.829 356.383 154.883 356.383C153.344 356.383 152.023 357.251 151.155 358.592C151.037 358.769 149.913 360.603 149.913 363.285C149.913 366.461 151.55 366.658 152.319 366.658C153.995 366.658 155.198 365.1 155.672 364.41C155.632 364.567 155.494 365.159 155.494 365.632C155.494 366.48 156.027 366.658 156.559 366.658C157.506 366.658 158.255 365.849 158.926 364.686L158.511 364.39C158.373 364.626 158.018 365.258 157.604 365.258C157.328 365.258 157.249 365.139 157.249 364.824C157.249 364.055 159.182 352.301 159.419 351.61ZM156.697 357.507L155.691 363.68C154.863 364.705 153.916 365.396 153.167 365.396C151.925 365.396 151.747 364.153 151.747 363.305C151.747 361.925 152.023 360.189 152.713 358.927C153.226 358 153.976 357.29 155.415 357.29C156.007 357.29 156.52 357.428 156.697 357.507ZM164.565 353.839C164.565 353.267 164.23 352.813 163.539 352.813C162.79 352.813 162.356 353.346 162.356 354.016C162.356 354.588 162.711 355.042 163.382 355.042C164.151 355.042 164.565 354.509 164.565 353.839ZM164.21 364.686L163.796 364.39C163.717 364.528 163.322 365.258 162.888 365.258C162.612 365.258 162.534 365.139 162.534 364.824C162.534 364.548 162.612 364.055 162.888 362.714L163.421 359.992C163.579 359.124 163.796 358 163.796 357.487C163.796 356.994 163.638 356.383 162.652 356.383C161.725 356.383 160.956 357.192 160.285 358.335L160.699 358.631C160.837 358.395 161.212 357.783 161.607 357.783C161.883 357.783 161.962 357.902 161.962 358.217C161.962 358.473 161.863 358.966 161.607 360.308L161.074 363.029C160.916 363.917 160.699 365.041 160.699 365.553C160.699 366.046 160.857 366.658 161.843 366.658C162.77 366.658 163.539 365.849 164.21 364.686ZM173.325 357.645C173.325 357.211 173.01 356.383 170.801 356.383C167.271 356.383 165.831 359.933 165.831 362.911C165.831 365.672 167.133 366.677 168.829 366.677C170.801 366.677 171.925 365.258 172.339 364.725L172.063 364.41C171.866 364.567 171.018 365.435 169.637 365.435C168.71 365.435 167.665 365.06 167.665 362.654C167.665 358.079 169.46 357.172 170.525 357.172C171.235 357.172 171.373 357.645 171.452 357.842C171.629 358.237 171.767 358.611 172.359 358.611C172.871 358.611 173.325 358.276 173.325 357.645ZM182.867 364.686L182.453 364.39C182.394 364.508 182.019 365.238 181.585 365.238C181.309 365.238 181.191 365.139 181.191 364.824C181.191 364.311 181.999 358.927 182.532 356.422L182.315 356.284L180.836 357.014C180.678 356.876 180.047 356.383 178.824 356.383C177.345 356.383 176.083 357.211 175.235 358.552C175.117 358.73 173.973 360.643 173.973 363.246C173.973 366.303 175.373 366.658 176.32 366.658C177.779 366.658 178.982 365.336 179.574 364.41C179.515 364.626 179.396 365.179 179.396 365.632C179.396 366.48 179.968 366.658 180.481 366.658C181.428 366.658 182.197 365.849 182.867 364.686ZM180.619 357.507L179.613 363.68C178.785 364.705 177.917 365.396 177.168 365.396C175.965 365.396 175.807 364.153 175.807 363.305C175.807 361.925 176.083 360.169 176.773 358.927C177.286 358 177.976 357.29 179.377 357.29C179.948 357.29 180.442 357.428 180.619 357.507ZM188.685 351.61L188.547 351.512C188.231 351.67 187.817 351.729 187.245 351.808C186.91 351.847 185.944 351.906 185.549 351.906L185.47 352.38C186.397 352.439 186.614 352.636 186.614 353.228C186.614 353.938 185.214 361.392 184.78 364.469C184.701 365.001 184.662 365.415 184.662 365.613C184.662 366.106 184.819 366.658 185.786 366.658C186.732 366.658 187.482 365.849 188.152 364.686L187.738 364.39C187.659 364.587 187.245 365.258 186.831 365.258C186.575 365.258 186.476 365.139 186.476 364.824C186.476 364.548 186.713 363.029 187.028 360.978C187.62 357.31 188.448 352.537 188.685 351.61ZM193.803 351.61L193.665 351.512C193.35 351.67 192.935 351.729 192.363 351.808C192.028 351.847 191.062 351.906 190.667 351.906L190.589 352.38C191.515 352.439 191.732 352.636 191.732 353.228C191.732 353.938 190.332 361.392 189.898 364.469C189.819 365.001 189.78 365.415 189.78 365.613C189.78 366.106 189.938 366.658 190.904 366.658C191.851 366.658 192.6 365.849 193.271 364.686L192.857 364.39C192.778 364.587 192.363 365.258 191.949 365.258C191.693 365.258 191.594 365.139 191.594 364.824C191.594 364.548 191.831 363.029 192.147 360.978C192.738 357.31 193.566 352.537 193.803 351.61ZM202.649 357.468C202.649 356.896 202.452 356.383 201.604 356.383C200.795 356.383 200.539 356.975 200.539 357.33C200.539 357.645 200.657 357.902 200.795 358.079C200.894 358.217 201.032 358.395 201.032 358.651C201.032 359.183 200.42 360.603 198.33 364.922C198.251 364.074 197.955 361.747 197.265 357.882C197.127 357.152 197.008 356.383 196.141 356.383C195.135 356.383 194.386 357.251 193.754 358.335L194.169 358.631C194.346 358.335 194.622 357.803 195.017 357.803C195.352 357.803 195.411 358 195.47 358.414L196.989 366.894C196.93 367.013 196.2 368.354 195.924 368.768C194.78 370.503 194.031 370.444 193.774 370.444C193.36 370.444 193.242 370.208 193.123 369.951L193.045 369.793C192.926 369.577 192.749 369.281 192.315 369.281C191.881 369.281 191.447 369.577 191.447 370.168C191.447 370.996 192.453 371.233 193.321 371.233C194.918 371.233 195.924 370.681 197.344 368.413C198.468 366.599 200.933 361.984 201.998 359.598C202.491 358.513 202.649 357.941 202.649 357.468ZM9.46043 379.645C9.46043 379.211 9.14489 378.383 6.93611 378.383C3.406 378.383 1.96634 381.933 1.96634 384.911C1.96634 387.672 3.26795 388.677 4.96398 388.677C6.93611 388.677 8.06022 387.258 8.47437 386.725L8.19827 386.41C8.00106 386.567 7.15304 387.435 5.77255 387.435C4.84565 387.435 3.80042 387.06 3.80042 384.654C3.80042 380.079 5.59506 379.172 6.66001 379.172C7.36998 379.172 7.50802 379.645 7.58691 379.842C7.7644 380.237 7.90245 380.611 8.49409 380.611C9.00684 380.611 9.46043 380.276 9.46043 379.645ZM18.8843 386.686L18.4701 386.39C18.3715 386.567 17.9771 387.258 17.563 387.258C17.2869 387.258 17.208 387.139 17.208 386.824C17.208 386.548 17.2869 386.055 17.563 384.714L17.8785 383.017C18.0757 382.071 18.3124 380.868 18.3124 380.178C18.3124 379.704 18.2729 378.383 16.3008 378.383C14.5456 378.383 13.5201 379.665 12.9285 380.533L13.2045 378.876C13.5004 376.983 13.737 375.523 14.1512 373.61L14.0131 373.512C13.6976 373.67 13.2637 373.729 12.6721 373.808C12.3565 373.847 11.4099 373.906 10.9958 373.906L10.9169 374.38C11.8635 374.439 12.0607 374.616 12.0607 375.228C12.0607 376.056 10.6211 384.615 9.93082 388.5H11.6466L12.8101 381.361C13.1848 380.888 14.2695 379.625 15.4331 379.625C16.3402 379.625 16.498 380.059 16.498 380.69C16.498 381.262 16.1825 382.899 16.1233 383.136L15.7486 385.049C15.5711 385.976 15.3739 387.041 15.3739 387.553C15.3739 388.046 15.5317 388.658 16.5177 388.658C17.4446 388.658 18.2138 387.849 18.8843 386.686ZM29.4171 386.686L29.003 386.39C28.9438 386.508 28.5691 387.238 28.1353 387.238C27.8592 387.238 27.7408 387.139 27.7408 386.824C27.7408 386.311 28.5494 380.927 29.0819 378.422L28.8649 378.284L27.3858 379.014C27.2281 378.876 26.597 378.383 25.3743 378.383C23.8952 378.383 22.633 379.211 21.785 380.552C21.6667 380.73 20.5228 382.643 20.5228 385.246C20.5228 388.303 21.9231 388.658 22.8697 388.658C24.329 388.658 25.532 387.336 26.1237 386.41C26.0645 386.626 25.9462 387.179 25.9462 387.632C25.9462 388.48 26.5181 388.658 27.0309 388.658C27.9775 388.658 28.7466 387.849 29.4171 386.686ZM27.1689 379.507L26.1631 385.68C25.3348 386.705 24.4671 387.396 23.7177 387.396C22.5147 387.396 22.3569 386.153 22.3569 385.305C22.3569 383.925 22.633 382.169 23.3233 380.927C23.836 380 24.5263 379.29 25.9265 379.29C26.4984 379.29 26.9914 379.428 27.1689 379.507ZM40.2045 386.686L39.7904 386.39C39.7115 386.528 39.2974 387.258 38.8832 387.258C38.6071 387.258 38.5282 387.139 38.5282 386.824C38.5282 386.548 38.6071 386.055 38.8635 384.714L39.1987 383.017C39.396 382.071 39.6326 380.868 39.6326 380.178C39.6326 379.704 39.5932 378.383 37.621 378.383C35.8067 378.383 34.7417 379.763 34.1501 380.611C34.1501 380.611 34.3276 379.941 34.3276 379.408C34.3276 378.56 33.7754 378.383 33.2429 378.383C32.2963 378.383 31.5272 379.192 30.8566 380.335L31.2708 380.631C31.3694 380.454 31.7441 379.803 32.1385 379.803C32.4146 379.803 32.533 379.902 32.533 380.217C32.533 381.006 31.8033 385.502 31.2116 388.5H32.9668L34.1304 381.361C34.4854 380.888 35.5898 379.625 36.7533 379.625C37.6605 379.625 37.8183 380.059 37.8183 380.69C37.8183 381.262 37.5027 382.899 37.4436 383.136L37.0688 385.049C36.8914 385.976 36.6941 387.041 36.6941 387.553C36.6941 388.046 36.8519 388.658 37.838 388.658C38.7649 388.658 39.534 387.849 40.2045 386.686ZM51.8518 378.442L47.7695 378.718C47.3553 378.521 46.7243 378.383 45.9946 378.383C44.9888 378.383 44.1999 378.659 43.6083 379.093C42.642 379.823 42.2081 381.006 42.2081 382.091C42.2081 384.122 43.628 384.792 44.1211 384.95C43.845 385.029 42.2081 385.562 42.2081 386.942C42.2081 387.731 42.7603 388.046 42.9378 388.125C42.642 388.224 40.3148 389.032 40.3148 390.847C40.3148 393.115 43.2336 393.233 44.2591 393.233C47.2173 393.233 48.8344 392.109 49.5444 391.044C49.9191 390.472 50.0177 389.92 50.0177 389.545C50.0177 387.928 48.7161 387.711 47.3751 387.474L45.1663 387.08C44.3577 386.942 43.845 386.863 43.845 386.252C43.845 385.64 44.3972 385.266 44.6733 385.128C44.8902 385.167 45.3438 385.226 45.7382 385.226C48.7358 385.226 49.4458 383.057 49.4458 381.499C49.4458 380.454 49.0514 379.842 48.6964 379.468L51.6349 379.704L51.8518 378.442ZM47.6314 381.124C47.6314 383.096 46.9806 384.556 45.6002 384.556C44.3577 384.556 44.0422 383.589 44.0422 382.485C44.0422 380.513 44.6733 379.034 46.0735 379.034C47.3159 379.034 47.6314 380.02 47.6314 381.124ZM48.302 390.137C48.302 390.945 47.8089 391.399 47.2567 391.754C46.5271 392.208 45.6199 392.365 44.693 392.365C43.3519 392.365 41.9123 392.03 41.9123 390.59C41.9123 389.723 42.6025 388.894 43.4505 388.342L45.9946 388.796C47.3751 389.032 48.302 389.23 48.302 390.137ZM59.4573 380.454C59.4573 379.685 59.1023 378.383 56.7752 378.383C53.6987 378.383 51.7857 381.381 51.7857 384.911C51.7857 387.672 53.107 388.677 54.8425 388.677C56.8935 388.677 58.0768 387.258 58.4712 386.725L58.1754 386.41C57.9979 386.567 57.0513 387.435 55.6905 387.435C54.4875 387.435 53.6001 386.765 53.6001 384.733C53.6001 384.082 53.6395 383.649 53.6395 383.649C55.6314 383.649 59.4573 383.412 59.4573 380.454ZM57.6429 380.493C57.6429 381.755 56.8146 382.524 55.2961 382.82C54.665 382.939 54.0734 382.958 53.7184 382.958C54.0142 380.75 54.7242 379.842 55.375 379.428C55.7694 379.192 56.1244 379.152 56.4005 379.152C57.5838 379.152 57.6429 380.099 57.6429 380.493ZM70.3254 378.58H67.7222C67.7222 378.58 68.018 376.667 68.1955 375.938L66.9728 376.076L66.8939 376.411C66.7164 377.18 66.4995 377.87 66.0459 378.344C65.6909 378.718 65.1584 378.915 64.6654 378.975L64.6062 379.408H65.9473L65.0204 384.773C64.8429 385.759 64.764 386.508 64.764 386.883C64.764 387.849 65.0993 388.677 66.4403 388.677C67.3475 388.677 68.2941 388.263 69.4774 386.666L69.1619 386.331C68.6688 386.804 68.0377 387.415 67.3672 387.415C66.6572 387.415 66.4995 386.942 66.4995 386.449C66.4995 386.094 66.6178 385.246 66.6572 385.009L67.5841 379.408H70.2071L70.3254 378.58ZM79.4602 386.686L79.0461 386.39C78.9475 386.567 78.553 387.258 78.1389 387.258C77.8628 387.258 77.7839 387.139 77.7839 386.824C77.7839 386.548 77.8628 386.055 78.1389 384.714L78.4544 383.017C78.6516 382.071 78.8883 380.868 78.8883 380.178C78.8883 379.704 78.8489 378.383 76.8767 378.383C75.1215 378.383 74.096 379.665 73.5044 380.533L73.7805 378.876C74.0763 376.983 74.313 375.523 74.7271 373.61L74.5891 373.512C74.2735 373.67 73.8396 373.729 73.248 373.808C72.9325 373.847 71.9858 373.906 71.5717 373.906L71.4928 374.38C72.4394 374.439 72.6366 374.616 72.6366 375.228C72.6366 376.056 71.197 384.615 70.5067 388.5H72.2225L73.3861 381.361C73.7608 380.888 74.8454 379.625 76.009 379.625C76.9162 379.625 77.0739 380.059 77.0739 380.69C77.0739 381.262 76.7584 382.899 76.6992 383.136L76.3245 385.049C76.147 385.976 75.9498 387.041 75.9498 387.553C75.9498 388.046 76.1076 388.658 77.0937 388.658C78.0206 388.658 78.7897 387.849 79.4602 386.686ZM88.7704 380.454C88.7704 379.685 88.4154 378.383 86.0883 378.383C83.0117 378.383 81.0988 381.381 81.0988 384.911C81.0988 387.672 82.4201 388.677 84.1556 388.677C86.2066 388.677 87.3899 387.258 87.7843 386.725L87.4885 386.41C87.311 386.567 86.3644 387.435 85.0036 387.435C83.8006 387.435 82.9131 386.765 82.9131 384.733C82.9131 384.082 82.9526 383.649 82.9526 383.649C84.9444 383.649 88.7704 383.412 88.7704 380.454ZM86.956 380.493C86.956 381.755 86.1277 382.524 84.6092 382.82C83.9781 382.939 83.3864 382.958 83.0315 382.958C83.3273 380.75 84.0372 379.842 84.688 379.428C85.0825 379.192 85.4375 379.152 85.7136 379.152C86.8968 379.152 86.956 380.099 86.956 380.493ZM107.547 379.468C107.547 378.896 107.35 378.383 106.501 378.383C105.693 378.383 105.437 378.975 105.437 379.33C105.437 379.645 105.535 379.842 105.653 380.02C105.811 380.237 105.93 380.414 105.93 380.651C105.93 381.203 105.2 382.919 103.208 386.883L102.971 385.108L102.084 378.501H100.447L97.0747 386.843C97.0156 386.074 96.7 382.051 96.3845 379.783C96.2859 379.054 96.1675 378.383 95.2998 378.383C94.3335 378.383 93.5643 379.251 92.9332 380.335L93.3474 380.631C93.5249 380.335 93.8207 379.803 94.1954 379.803C94.5307 379.803 94.5898 379.961 94.649 380.414L95.7337 388.717L97.3508 388.539L100.132 381.696C100.408 380.927 100.585 380.513 100.644 380.276C100.664 380.533 100.743 381.203 100.822 381.696L101.768 388.717L103.149 388.539C105.22 384.891 106.285 382.801 106.58 382.189C106.856 381.657 107.547 380.414 107.547 379.468ZM117.269 386.686L116.855 386.39C116.796 386.508 116.421 387.238 115.987 387.238C115.711 387.238 115.593 387.139 115.593 386.824C115.593 386.311 116.402 380.927 116.934 378.422L116.717 378.284L115.238 379.014C115.08 378.876 114.449 378.383 113.226 378.383C111.747 378.383 110.485 379.211 109.637 380.552C109.519 380.73 108.375 382.643 108.375 385.246C108.375 388.303 109.775 388.658 110.722 388.658C112.181 388.658 113.384 387.336 113.976 386.41C113.917 386.626 113.798 387.179 113.798 387.632C113.798 388.48 114.37 388.658 114.883 388.658C115.83 388.658 116.599 387.849 117.269 386.686ZM115.021 379.507L114.015 385.68C113.187 386.705 112.319 387.396 111.57 387.396C110.367 387.396 110.209 386.153 110.209 385.305C110.209 383.925 110.485 382.169 111.175 380.927C111.688 380 112.378 379.29 113.779 379.29C114.351 379.29 114.844 379.428 115.021 379.507ZM126.814 379.468C126.814 378.896 126.617 378.383 125.769 378.383C124.96 378.383 124.704 378.975 124.704 379.33C124.704 379.645 124.822 379.902 124.96 380.079C125.059 380.217 125.197 380.395 125.197 380.651C125.197 381.183 124.586 382.603 122.495 386.922C122.416 386.074 122.121 383.747 121.43 379.882C121.292 379.152 121.174 378.383 120.306 378.383C119.3 378.383 118.551 379.251 117.92 380.335L118.334 380.631C118.512 380.335 118.788 379.803 119.182 379.803C119.517 379.803 119.577 380 119.636 380.414L121.154 388.894C121.095 389.013 120.365 390.354 120.089 390.768C118.945 392.503 118.196 392.444 117.94 392.444C117.526 392.444 117.407 392.208 117.289 391.951L117.21 391.793C117.092 391.577 116.914 391.281 116.48 391.281C116.046 391.281 115.613 391.577 115.613 392.168C115.613 392.996 116.618 393.233 117.486 393.233C119.084 393.233 120.089 392.681 121.509 390.413C122.633 388.599 125.099 383.984 126.163 381.598C126.656 380.513 126.814 379.941 126.814 379.468ZM145.103 379.468C145.103 378.896 144.905 378.383 144.057 378.383C143.249 378.383 142.992 378.975 142.992 379.33C142.992 379.645 143.091 379.842 143.209 380.02C143.367 380.237 143.486 380.414 143.486 380.651C143.486 381.203 142.756 382.919 140.764 386.883L140.527 385.108L139.64 378.501H138.003L134.631 386.843C134.571 386.074 134.256 382.051 133.94 379.783C133.842 379.054 133.723 378.383 132.856 378.383C131.889 378.383 131.12 379.251 130.489 380.335L130.903 380.631C131.081 380.335 131.377 379.803 131.751 379.803C132.087 379.803 132.146 379.961 132.205 380.414L133.29 388.717L134.907 388.539L137.687 381.696C137.964 380.927 138.141 380.513 138.2 380.276C138.22 380.533 138.299 381.203 138.378 381.696L139.324 388.717L140.705 388.539C142.776 384.891 143.841 382.801 144.136 382.189C144.412 381.657 145.103 380.414 145.103 379.468ZM153.603 380.454C153.603 379.685 153.248 378.383 150.92 378.383C147.844 378.383 145.931 381.381 145.931 384.911C145.931 387.672 147.252 388.677 148.988 388.677C151.039 388.677 152.222 387.258 152.616 386.725L152.321 386.41C152.143 386.567 151.197 387.435 149.836 387.435C148.633 387.435 147.745 386.765 147.745 384.733C147.745 384.082 147.785 383.649 147.785 383.649C149.777 383.649 153.603 383.412 153.603 380.454ZM151.788 380.493C151.788 381.755 150.96 382.524 149.441 382.82C148.81 382.939 148.219 382.958 147.864 382.958C148.159 380.75 148.869 379.842 149.52 379.428C149.915 379.192 150.27 379.152 150.546 379.152C151.729 379.152 151.788 380.099 151.788 380.493ZM166.108 379.645C166.108 379.211 165.792 378.383 163.583 378.383C160.053 378.383 158.613 381.933 158.613 384.911C158.613 387.672 159.915 388.677 161.611 388.677C163.583 388.677 164.707 387.258 165.121 386.725L164.845 386.41C164.648 386.567 163.8 387.435 162.42 387.435C161.493 387.435 160.448 387.06 160.448 384.654C160.448 380.079 162.242 379.172 163.307 379.172C164.017 379.172 164.155 379.645 164.234 379.842C164.412 380.237 164.55 380.611 165.141 380.611C165.654 380.611 166.108 380.276 166.108 379.645ZM173.816 379.349C173.816 378.422 173.007 378.383 172.77 378.383C171.745 378.383 170.877 379.349 169.832 380.828C169.95 380.454 170.069 379.842 170.069 379.408C170.069 378.56 169.516 378.383 168.984 378.383C168.037 378.383 167.268 379.192 166.598 380.335L167.012 380.631C167.11 380.473 167.465 379.803 167.88 379.803C168.156 379.803 168.274 379.902 168.274 380.217C168.274 381.006 167.584 385.502 166.972 388.5H168.747L169.812 381.637C170.147 381.183 171.193 379.961 171.666 379.961C171.922 379.961 172.021 380.04 172.238 380.296C172.376 380.454 172.652 380.513 172.83 380.513C173.362 380.513 173.816 380.02 173.816 379.349ZM181.452 380.454C181.452 379.685 181.097 378.383 178.77 378.383C175.693 378.383 173.78 381.381 173.78 384.911C173.78 387.672 175.102 388.677 176.837 388.677C178.888 388.677 180.071 387.258 180.466 386.725L180.17 386.41C179.993 386.567 179.046 387.435 177.685 387.435C176.482 387.435 175.595 386.765 175.595 384.733C175.595 384.082 175.634 383.649 175.634 383.649C177.626 383.649 181.452 383.412 181.452 380.454ZM179.638 380.493C179.638 381.755 178.809 382.524 177.291 382.82C176.66 382.939 176.068 382.958 175.713 382.958C176.009 380.75 176.719 379.842 177.37 379.428C177.764 379.192 178.119 379.152 178.395 379.152C179.578 379.152 179.638 380.099 179.638 380.493ZM191.606 386.686L191.192 386.39C191.133 386.508 190.758 387.238 190.324 387.238C190.048 387.238 189.93 387.139 189.93 386.824C189.93 386.311 190.738 380.927 191.271 378.422L191.054 378.284L189.575 379.014C189.417 378.876 188.786 378.383 187.563 378.383C186.084 378.383 184.822 379.211 183.974 380.552C183.856 380.73 182.712 382.643 182.712 385.246C182.712 388.303 184.112 388.658 185.059 388.658C186.518 388.658 187.721 387.336 188.313 386.41C188.254 386.626 188.135 387.179 188.135 387.632C188.135 388.48 188.707 388.658 189.22 388.658C190.167 388.658 190.936 387.849 191.606 386.686ZM189.358 379.507L188.352 385.68C187.524 386.705 186.656 387.396 185.907 387.396C184.704 387.396 184.546 386.153 184.546 385.305C184.546 383.925 184.822 382.169 185.512 380.927C186.025 380 186.715 379.29 188.116 379.29C188.687 379.29 189.181 379.428 189.358 379.507ZM199.061 378.58H196.458C196.458 378.58 196.753 376.667 196.931 375.938L195.708 376.076L195.629 376.411C195.452 377.18 195.235 377.87 194.781 378.344C194.426 378.718 193.894 378.915 193.401 378.975L193.342 379.408H194.683L193.756 384.773C193.578 385.759 193.499 386.508 193.499 386.883C193.499 387.849 193.835 388.677 195.176 388.677C196.083 388.677 197.029 388.263 198.213 386.666L197.897 386.331C197.404 386.804 196.773 387.415 196.103 387.415C195.393 387.415 195.235 386.942 195.235 386.449C195.235 386.094 195.353 385.246 195.393 385.009L196.319 379.408H198.942L199.061 378.58ZM207.091 380.454C207.091 379.685 206.736 378.383 204.409 378.383C201.333 378.383 199.42 381.381 199.42 384.911C199.42 387.672 200.741 388.677 202.476 388.677C204.527 388.677 205.711 387.258 206.105 386.725L205.809 386.41C205.632 386.567 204.685 387.435 203.324 387.435C202.121 387.435 201.234 386.765 201.234 384.733C201.234 384.082 201.273 383.649 201.273 383.649C203.265 383.649 207.091 383.412 207.091 380.454ZM205.277 380.493C205.277 381.755 204.448 382.524 202.93 382.82C202.299 382.939 201.707 382.958 201.352 382.958C201.648 380.75 202.358 379.842 203.009 379.428C203.403 379.192 203.758 379.152 204.034 379.152C205.218 379.152 205.277 380.099 205.277 380.493ZM210.244 387.238C210.244 386.666 209.83 386.193 209.101 386.193C208.292 386.193 207.799 386.745 207.799 387.672C207.799 387.928 207.976 388.737 208.903 388.737C209.712 388.737 210.244 388.184 210.244 387.238Z" fill="#767C34"/>
</svg>
