<svg width="118" height="118" viewBox="0 0 118 118" fill="none" xmlns="http://www.w3.org/2000/svg">
<path d="M58.3095 113.635C58.2836 113.632 58.2677 113.628 58.2591 113.625L58.2404 113.606L58.1981 113.581C36.1832 100.372 25.3201 86.4435 20.2049 77.0655C16.3141 69.8915 14.2447 61.6188 14.2447 52.9759V4.90406C14.2447 4.62706 14.3353 4.42731 14.4648 4.29782C14.5943 4.16832 14.7941 4.07773 15.071 4.07773H102.14C102.417 4.07773 102.617 4.16832 102.746 4.29782C102.876 4.42731 102.966 4.62706 102.966 4.90406V52.9759C102.966 61.6188 100.897 69.8915 97.0061 77.0655C91.8904 86.4443 81.15 100.372 59.0151 113.457L58.9136 113.517L58.8609 113.623C58.8597 113.625 58.8586 113.627 58.8578 113.628C58.8557 113.629 58.8526 113.63 58.8482 113.631C58.8318 113.636 58.8052 113.641 58.7618 113.644C58.7175 113.647 58.6692 113.647 58.6055 113.647C58.4755 113.647 58.3832 113.646 58.3095 113.635ZM16.2974 5.73038H15.8974V6.13038V52.9759C15.8974 61.2531 17.8735 69.4154 21.7121 76.2262C26.7736 85.361 37.1238 98.9017 58.3994 111.692L58.6055 111.816L58.8116 111.692C80.0849 98.9031 90.5598 85.3627 95.5006 76.2232C99.3368 69.2926 101.314 61.2546 101.314 52.9759V6.13038V5.73038H100.914H16.2974Z" fill="#F5F4F0" stroke="#44503F" stroke-width="0.8"/>
</svg>
