<svg width="606" height="182" viewBox="0 0 606 182" fill="none" xmlns="http://www.w3.org/2000/svg">
<path d="M48.6491 47.7037C48.6491 29.1922 48.1976 20.2751 42.7796 14.2927C39.5062 10.5678 34.8783 7.63311 27.2028 7.63311H6.77249V88H27.2028C34.8783 88 39.5062 85.0653 42.7796 81.3404C48.1976 75.358 48.6491 66.2152 48.6491 47.7037ZM36.0071 47.7037C36.0071 61.7002 35.7813 69.6014 33.2981 73.3263C32.0565 75.2451 29.9118 76.5996 26.8642 76.5996H19.4145V19.0335H26.8642C29.9118 19.0335 32.0565 20.388 33.2981 22.3068C35.7813 26.0317 36.0071 33.7072 36.0071 47.7037ZM96.9233 68.2469V7.63311H84.2814V68.9241C84.2814 74.6808 80.7822 77.5026 76.493 77.5026C72.2037 77.5026 68.5918 74.6808 68.5918 68.9241V7.63311H55.9498V68.2469C55.9498 74.3421 57.9815 79.4215 61.4806 83.0335C65.3184 86.9841 70.5106 88.903 76.493 88.903C82.4754 88.903 87.5547 86.9841 91.3925 83.0335C94.8916 79.4215 96.9233 74.3421 96.9233 68.2469ZM141.588 19.0335V7.63311H101.969V19.0335H115.401V88H128.043V19.0335H141.588ZM186.04 66.6667H173.398C173.285 69.6014 172.833 72.5361 171.479 74.5679C170.35 76.3739 168.544 77.5026 165.497 77.5026C162.449 77.5026 160.643 76.261 159.514 74.455C157.031 70.6173 156.692 62.4903 156.692 47.8166C156.692 33.1428 157.031 25.0158 159.514 21.1781C160.643 19.3721 162.449 18.1305 165.497 18.1305C168.544 18.1305 170.35 19.2592 171.479 21.0652C172.833 22.9841 173.285 25.9188 173.398 28.8536H186.04C185.814 21.7425 183.669 15.6472 179.606 11.9224C175.994 8.5361 171.592 6.73011 165.497 6.73011C158.047 6.73011 153.193 9.66486 149.92 13.6155C144.615 19.9365 144.05 28.7407 144.05 47.8166C144.05 66.8924 144.615 75.6966 149.92 82.0176C153.193 85.9683 158.047 88.903 165.497 88.903C171.592 88.903 175.768 87.2099 179.38 83.8236C183.444 80.0988 185.814 73.8906 186.04 66.6667ZM234.267 88V7.63311H221.625V41.4956H205.936V7.63311H193.294V88H205.936V52.8959H221.625V88H234.267Z" fill="#DAA122"/>
<path d="M117.727 181V100.633H106.213L90.7496 142.848L75.1729 100.633H63.7725V181H76.4145V131.448L87.1376 163.843H94.1358L105.085 130.884V181H117.727ZM173.222 181L153.695 100.633H141.392L121.638 181H134.958L138.118 165.085H156.743L160.016 181H173.222ZM154.372 153.684H140.601L147.487 120.048L154.372 153.684ZM216.64 158.764C216.64 145.219 214.044 140.139 204.45 136.189L194.968 132.351C189.325 130.093 188.309 128.062 188.309 121.515C188.309 118.016 188.986 115.307 190.453 113.614C191.695 112.259 193.275 111.356 195.871 111.356C198.58 111.356 200.386 112.259 201.515 113.727C203.208 115.871 203.434 118.693 203.434 122.305H216.076C216.076 114.63 214.609 108.873 210.432 104.809C207.159 101.649 202.418 99.9559 195.984 99.9559C190.228 99.9559 185.713 101.762 182.213 104.809C177.811 108.76 175.667 114.63 175.667 121.854C175.667 134.27 178.714 138.672 186.841 142.058L196.436 146.009C202.644 148.492 203.998 150.637 203.998 159.215C203.998 163.504 203.547 166.213 201.854 168.132C200.612 169.6 198.693 170.39 195.758 170.39C192.937 170.39 191.018 169.487 189.889 168.245C188.083 166.213 187.631 163.504 187.631 159.215H174.989C174.989 167.681 176.344 172.647 180.182 176.485C183.568 179.871 188.76 181.79 195.758 181.79C202.87 181.79 208.175 179.646 211.448 176.485C215.512 172.534 216.64 167.004 216.64 158.764ZM259.025 112.033V100.633H219.406V112.033H232.838V181H245.48V112.033H259.025ZM298.483 181V169.6H277.376V146.235H295.549V134.834H277.376V112.033H298.483V100.633H264.734V181H298.483ZM349.557 181L337.593 145.332C344.93 141.381 346.961 134.27 346.961 124.337C346.961 107.744 341.092 100.633 326.418 100.633H306.101V181H318.743V148.041H325.854L336.351 181H349.557ZM334.319 124.337C334.319 130.996 333.304 136.64 326.531 136.64H318.743V112.033H326.531C333.304 112.033 334.319 117.677 334.319 124.337ZM397.477 125.127C397.477 108.309 391.382 100.633 376.821 100.633H356.617V181H369.259V149.508H376.821C391.382 149.508 397.477 141.945 397.477 125.127ZM384.835 125.127C384.835 133.254 383.142 138.108 376.37 138.108H369.259V112.033H376.37C383.142 112.033 384.835 117 384.835 125.127ZM417.68 181V100.633H405.038V181H417.68ZM461.636 181V169.6H440.528V146.235H458.701V134.834H440.528V112.033H461.636V100.633H427.886V181H461.636ZM509.098 159.667H496.456C496.343 162.601 495.892 165.536 494.537 167.568C493.409 169.374 491.603 170.503 488.555 170.503C485.507 170.503 483.701 169.261 482.573 167.455C480.089 163.617 479.751 155.49 479.751 140.817C479.751 126.143 480.089 118.016 482.573 114.178C483.701 112.372 485.507 111.13 488.555 111.13C491.603 111.13 493.409 112.259 494.537 114.065C495.892 115.984 496.343 118.919 496.456 121.854H509.098C508.872 114.742 506.728 108.647 502.664 104.922C499.052 101.536 494.65 99.7301 488.555 99.7301C481.105 99.7301 476.252 102.665 472.978 106.615C467.673 112.936 467.109 121.741 467.109 140.817C467.109 159.892 467.673 168.697 472.978 175.018C476.252 178.968 481.105 181.903 488.555 181.903C494.65 181.903 498.827 180.21 502.439 176.824C506.502 173.099 508.872 166.891 509.098 159.667ZM550.102 181V169.6H528.994V146.235H547.167V134.834H528.994V112.033H550.102V100.633H516.352V181H550.102ZM596.548 158.764C596.548 145.219 593.952 140.139 584.357 136.189L574.876 132.351C569.232 130.093 568.216 128.062 568.216 121.515C568.216 118.016 568.894 115.307 570.361 113.614C571.603 112.259 573.183 111.356 575.779 111.356C578.488 111.356 580.294 112.259 581.423 113.727C583.116 115.871 583.342 118.693 583.342 122.305H595.984C595.984 114.63 594.516 108.873 590.34 104.809C587.066 101.649 582.326 99.9559 575.892 99.9559C570.135 99.9559 565.62 101.762 562.121 104.809C557.719 108.76 555.574 114.63 555.574 121.854C555.574 134.27 558.622 138.672 566.749 142.058L576.343 146.009C582.551 148.492 583.906 150.637 583.906 159.215C583.906 163.504 583.454 166.213 581.761 168.132C580.52 169.6 578.601 170.39 575.666 170.39C572.844 170.39 570.925 169.487 569.797 168.245C567.991 166.213 567.539 163.504 567.539 159.215H554.897C554.897 167.681 556.252 172.647 560.089 176.485C563.476 179.871 568.668 181.79 575.666 181.79C582.777 181.79 588.082 179.646 591.356 176.485C595.419 172.534 596.548 167.004 596.548 158.764Z" fill="#DAA122"/>
<path d="M267.974 9.47643H247.944C247.944 9.47643 247.775 11.1667 247.479 12.7302C247.183 14.336 246.887 15.4347 246.887 15.4769H247.902C248.24 13.7867 248.916 12.8147 249.676 12.1809C250.86 11.209 252.17 11.1667 254.494 11.1667H255.846L252.888 30.3515C252.423 33.563 252.212 35.042 251.324 35.9717C250.733 36.6055 249.888 37.0281 248.451 37.1549L248.324 38.0845C248.451 38.0845 251.071 37.9155 253.649 37.9155C256.353 37.9155 258.973 38.0845 259.057 38.0845L259.184 37.1549C256.945 37.0281 256.142 36.352 256.142 34.6617C256.142 33.9011 256.311 32.5066 256.48 31.4501L259.565 11.1667H260.832C262.607 11.1667 264.255 11.1667 265.185 12.0964C266.157 13.026 266.199 14.505 266.199 15.4769H267.171C267.171 15.4769 267.298 13.7867 267.509 12.1809C267.678 10.8709 267.974 9.47643 267.974 9.47643ZM285.239 34.1123L284.351 33.4785C284.14 33.8588 283.295 35.3378 282.407 35.3378C281.816 35.3378 281.647 35.0843 281.647 34.4081C281.647 33.8165 281.816 32.7601 282.407 29.8866L283.084 26.2525C283.506 24.2242 284.013 21.6465 284.013 20.1675C284.013 19.1533 283.929 16.3221 279.703 16.3221C275.942 16.3221 273.745 19.0688 272.477 20.9281L273.069 17.3785C273.703 13.3218 274.21 10.1948 275.097 6.09586L274.801 5.88457C274.125 6.22263 273.195 6.3494 271.928 6.51843C271.252 6.60294 269.223 6.72972 268.336 6.72972L268.167 7.74389C270.195 7.87066 270.618 8.25097 270.618 9.56094C270.618 11.3357 267.533 29.6753 266.054 38H269.73L272.224 22.7029C273.026 21.6887 275.351 18.9843 277.844 18.9843C279.788 18.9843 280.126 19.9139 280.126 21.2662C280.126 22.4916 279.449 25.999 279.323 26.5061L278.52 30.605C278.14 32.5911 277.717 34.873 277.717 35.9717C277.717 37.0281 278.055 38.3381 280.168 38.3381C282.154 38.3381 283.802 36.6055 285.239 34.1123ZM305.61 20.7591C305.61 19.1111 304.85 16.3221 299.863 16.3221C293.271 16.3221 289.172 22.7452 289.172 30.3092C289.172 36.2252 292.004 38.3803 295.722 38.3803C300.117 38.3803 302.652 35.3378 303.497 34.1969L302.864 33.5207C302.483 33.8588 300.455 35.7181 297.539 35.7181C294.962 35.7181 293.06 34.2814 293.06 29.9289C293.06 28.5344 293.144 27.6047 293.144 27.6047C297.412 27.6047 305.61 27.0977 305.61 20.7591ZM301.723 20.8436C301.723 23.5481 299.948 25.1961 296.694 25.8299C295.342 26.0835 294.074 26.1257 293.313 26.1257C293.947 21.3929 295.469 19.4491 296.863 18.5617C297.708 18.0546 298.469 17.9701 299.06 17.9701C301.596 17.9701 301.723 19.9985 301.723 20.8436ZM338.744 37.1549C337.096 36.9013 336.969 36.3942 336.757 36.1829C336.419 35.7181 336.166 34.5349 335.786 32.5066L331.644 9.09611L328.813 9.899L316.474 33.4785C316.094 34.1969 315.418 35.4646 314.657 36.2675C314.192 36.7323 313.643 37.0281 312.629 37.1549L312.502 38.0845C312.502 38.0845 314.572 37.9155 316.432 37.9155C318.629 37.9155 320.488 38.0845 320.488 38.0845L320.657 37.1549C319.77 37.0281 319.348 36.9013 319.094 36.7745C318.84 36.6478 318.418 36.3942 318.418 35.7181C318.418 35.1265 318.629 34.4927 319.643 32.4643L322.686 26.2525H330.926L331.898 31.915C332.067 32.8024 332.363 34.0701 332.363 34.9997C332.363 36.0562 331.813 36.4365 331.475 36.6478C331.18 36.8168 330.926 36.9858 329.616 37.1549L329.447 38.0845C329.447 38.0845 331.898 37.9155 334.307 37.9155C336.631 37.9155 338.575 38.0845 338.575 38.0845L338.744 37.1549ZM330.63 24.4355H323.573L326.912 17.7166C326.954 17.5898 328.898 13.6599 328.898 13.6599C328.898 13.6599 328.855 14.3783 329.193 16.3643L330.63 24.4355ZM356.503 18.3927C356.503 16.4066 354.77 16.3221 354.263 16.3221C352.066 16.3221 350.206 18.3927 347.967 21.562C348.22 20.7591 348.474 19.4491 348.474 18.5195C348.474 16.7024 347.291 16.3221 346.15 16.3221C344.121 16.3221 342.473 18.0546 341.037 20.5055L341.924 21.1394C342.135 20.8013 342.896 19.3646 343.783 19.3646C344.375 19.3646 344.628 19.5759 344.628 20.252C344.628 21.9423 343.15 31.5769 341.84 38H345.643L347.925 23.2945C348.643 22.3226 350.883 19.7027 351.897 19.7027C352.446 19.7027 352.657 19.8717 353.122 20.421C353.418 20.7591 354.01 20.8859 354.39 20.8859C355.531 20.8859 356.503 19.8294 356.503 18.3927ZM369.4 16.7447H363.822C363.822 16.7447 364.456 12.6457 364.836 11.0822L362.216 11.378L362.047 12.0964C361.667 13.7444 361.202 15.2234 360.23 16.2376C359.47 17.0405 358.329 17.463 357.272 17.5898L357.146 18.5195H360.019L358.033 30.0134C357.653 32.1263 357.484 33.732 357.484 34.5349C357.484 36.6055 358.202 38.3803 361.075 38.3803C363.019 38.3803 365.048 37.4929 367.583 34.0701L366.907 33.3517C365.851 34.3659 364.498 35.6759 363.062 35.6759C361.54 35.6759 361.202 34.6617 361.202 33.6053C361.202 32.8446 361.456 31.0276 361.54 30.5205L363.526 18.5195H369.147L369.4 16.7447ZM271.312 55.6877C269.833 55.4342 266.875 55.1384 264.34 55.1384C261.128 55.1384 259.269 55.7722 258.086 56.1948C253.184 57.9273 248.324 63.3785 248.324 72.5906C248.324 75.4641 249.085 84.2535 260.156 84.2535C263.537 84.2535 265.692 83.831 266.833 83.4929L266.96 82.5633C267.213 80.873 267.931 78.1263 268.016 77.8305H267.086C266.833 78.8869 266.03 80.5349 264.889 81.3378C263.833 82.0984 262.396 82.4365 260.663 82.4365C258.128 82.4365 252.381 81.8449 252.381 73.0131C252.381 63.294 256.226 58.688 260.705 57.3357C261.72 57.0399 262.945 56.8709 264.382 56.8709C265.565 56.8709 267.762 57.0399 268.903 58.6457C269.115 58.9415 269.579 59.7867 269.579 61.4769H270.551C270.594 60.6741 270.636 59.9979 270.805 58.4767C270.974 56.9554 271.312 55.6877 271.312 55.6877ZM290.127 70.858C290.127 65.1956 287.676 62.3221 282.605 62.3221C276.14 62.3221 272.294 68.3226 272.294 75.8021C272.294 81.5068 274.787 84.3803 279.858 84.3803C286.281 84.3803 290.127 78.3798 290.127 70.858ZM286.197 70.689C286.197 73.5202 285.478 78.7601 283.027 81.2533C282.182 82.1407 281.168 82.69 279.858 82.69C277.281 82.69 276.224 80.7039 276.224 75.9711C276.224 73.1822 276.942 67.9423 279.393 65.4069C280.239 64.5617 281.295 64.0124 282.563 64.0124C285.183 64.0124 286.197 65.9985 286.197 70.689ZM303.374 52.0959L303.078 51.8846C302.402 52.2226 301.514 52.3494 300.289 52.5184C299.57 52.6029 297.5 52.7297 296.655 52.7297L296.486 53.7439C298.472 53.8707 298.937 54.2932 298.937 55.5609C298.937 57.0822 295.936 73.0554 295.007 79.6475C294.838 80.7885 294.753 81.6759 294.753 82.0984C294.753 83.1549 295.091 84.3381 297.162 84.3381C299.19 84.3381 300.796 82.6055 302.233 80.1123L301.345 79.4785C301.176 79.9011 300.289 81.3378 299.401 81.3378C298.852 81.3378 298.641 81.0843 298.641 80.4081C298.641 79.8165 299.148 76.5627 299.824 72.168C301.092 64.3082 302.867 54.0819 303.374 52.0959ZM314.763 52.0959L314.467 51.8846C313.791 52.2226 312.904 52.3494 311.678 52.5184C310.96 52.6029 308.89 52.7297 308.044 52.7297L307.875 53.7439C309.861 53.8707 310.326 54.2932 310.326 55.5609C310.326 57.0822 307.326 73.0554 306.396 79.6475C306.227 80.7885 306.143 81.6759 306.143 82.0984C306.143 83.1549 306.481 84.3381 308.551 84.3381C310.58 84.3381 312.186 82.6055 313.622 80.1123L312.735 79.4785C312.566 79.9011 311.678 81.3378 310.791 81.3378C310.242 81.3378 310.03 81.0843 310.03 80.4081C310.03 79.8165 310.538 76.5627 311.214 72.168C312.481 64.3082 314.256 54.0819 314.763 52.0959ZM333.548 66.7591C333.548 65.1111 332.787 62.3221 327.801 62.3221C321.209 62.3221 317.11 68.7452 317.11 76.3092C317.11 82.2252 319.941 84.3803 323.66 84.3803C328.054 84.3803 330.59 81.3378 331.435 80.1969L330.801 79.5207C330.421 79.8588 328.393 81.7181 325.477 81.7181C322.899 81.7181 320.998 80.2814 320.998 75.9289C320.998 74.5344 321.082 73.6047 321.082 73.6047C325.35 73.6047 333.548 73.0977 333.548 66.7591ZM329.66 66.8436C329.66 69.5481 327.885 71.1961 324.632 71.8299C323.279 72.0835 322.012 72.1257 321.251 72.1257C321.885 67.3929 323.406 65.4491 324.801 64.5617C325.646 64.0546 326.406 63.9701 326.998 63.9701C329.533 63.9701 329.66 65.9985 329.66 66.8436ZM352.728 65.0265C352.728 64.0969 352.052 62.3221 347.319 62.3221C339.755 62.3221 336.67 69.9284 336.67 76.3092C336.67 82.2252 339.459 84.3803 343.093 84.3803C347.319 84.3803 349.728 81.3378 350.615 80.1969L350.024 79.5207C349.601 79.8588 347.784 81.7181 344.826 81.7181C342.84 81.7181 340.6 80.9152 340.6 75.7599C340.6 65.9562 344.446 64.0124 346.727 64.0124C348.249 64.0124 348.545 65.0265 348.714 65.4491C349.094 66.2943 349.39 67.0971 350.657 67.0971C351.756 67.0971 352.728 66.3788 352.728 65.0265ZM367.089 62.7447H361.511C361.511 62.7447 362.145 58.6457 362.525 57.0822L359.905 57.378L359.736 58.0964C359.356 59.7444 358.891 61.2234 357.919 62.2376C357.159 63.0405 356.018 63.463 354.961 63.5898L354.835 64.5195H357.708L355.722 76.0134C355.342 78.1263 355.173 79.732 355.173 80.5349C355.173 82.6055 355.891 84.3803 358.764 84.3803C360.708 84.3803 362.737 83.4929 365.272 80.0701L364.596 79.3517C363.54 80.3659 362.187 81.6759 360.751 81.6759C359.229 81.6759 358.891 80.6617 358.891 79.6053C358.891 78.8446 359.145 77.0276 359.229 76.5205L361.215 64.5195H366.836L367.089 62.7447ZM377.112 56.8709C377.112 55.6455 376.394 54.6735 374.915 54.6735C373.309 54.6735 372.38 55.8145 372.38 57.2512C372.38 58.4767 373.14 59.4486 374.577 59.4486C376.225 59.4486 377.112 58.3077 377.112 56.8709ZM376.352 80.1123L375.464 79.4785C375.295 79.7743 374.45 81.3378 373.52 81.3378C372.929 81.3378 372.76 81.0843 372.76 80.4081C372.76 79.8165 372.929 78.7601 373.52 75.8866L374.661 70.0551C374.999 68.1958 375.464 65.7872 375.464 64.6885C375.464 63.6321 375.126 62.3221 373.013 62.3221C371.027 62.3221 369.379 64.0546 367.943 66.5055L368.83 67.1394C369.126 66.6323 369.929 65.3223 370.774 65.3223C371.365 65.3223 371.534 65.5759 371.534 66.252C371.534 66.8013 371.323 67.8578 370.774 70.7313L369.633 76.5627C369.295 78.4643 368.83 80.873 368.83 81.9717C368.83 83.0281 369.168 84.3381 371.281 84.3381C373.267 84.3381 374.915 82.6055 376.352 80.1123ZM398.08 70.858C398.08 65.1956 395.63 62.3221 390.559 62.3221C384.093 62.3221 380.248 68.3226 380.248 75.8021C380.248 81.5068 382.741 84.3803 387.812 84.3803C394.235 84.3803 398.08 78.3798 398.08 70.858ZM394.151 70.689C394.151 73.5202 393.432 78.7601 390.981 81.2533C390.136 82.1407 389.122 82.69 387.812 82.69C385.234 82.69 384.178 80.7039 384.178 75.9711C384.178 73.1822 384.896 67.9423 387.347 65.4069C388.192 64.5617 389.249 64.0124 390.516 64.0124C393.136 64.0124 394.151 65.9985 394.151 70.689ZM421.976 80.1123L421.089 79.4785C420.92 79.7743 420.032 81.3378 419.145 81.3378C418.553 81.3378 418.384 81.0843 418.384 80.4081C418.384 79.8165 418.553 78.7601 419.103 75.8866L419.821 72.2525C420.244 70.2242 420.751 67.6465 420.751 66.1675C420.751 65.1533 420.666 62.3221 416.441 62.3221C412.553 62.3221 410.271 65.2801 409.003 67.0971C409.003 67.0971 409.384 65.6604 409.384 64.5195C409.384 62.7024 408.2 62.3221 407.059 62.3221C405.031 62.3221 403.383 64.0546 401.946 66.5055L402.834 67.1394C403.045 66.7591 403.848 65.3646 404.693 65.3646C405.285 65.3646 405.538 65.5759 405.538 66.252C405.538 67.9423 403.975 77.5769 402.707 84H406.468L408.961 68.7029C409.722 67.6887 412.088 64.9843 414.581 64.9843C416.525 64.9843 416.863 65.9139 416.863 67.2662C416.863 68.4916 416.187 71.999 416.06 72.5061L415.257 76.605C414.877 78.5911 414.454 80.873 414.454 81.9717C414.454 83.0281 414.793 84.3381 416.905 84.3381C418.891 84.3381 420.539 82.6055 421.976 80.1123Z" fill="#F5F4F0"/>
</svg>
